<?xml version="1.0" encoding="utf-8"?>
<!-- Generator: Adobe Illustrator 24.1.1, SVG Export Plug-In . SVG Version: 6.00 Build 0)  -->
<svg version="1.1" xmlns="http://www.w3.org/2000/svg" xmlns:xlink="http://www.w3.org/1999/xlink" x="0px" y="0px"
	 viewBox="0 0 1920 1080" style="enable-background:new 0 0 1920 1080;" xml:space="preserve">
<style type="text/css">
	.st0{fill:url(#SVGID_1_);}
	.st1{fill:url(#SVGID_2_);}
	.st2{fill:url(#SVGID_3_);}
	.st3{fill:url(#SVGID_4_);}
	.st4{fill:url(#SVGID_5_);}
</style>
<g id="Warstwa_4">
	
		<linearGradient id="SVGID_1_" gradientUnits="userSpaceOnUse" x1="1063.1307" y1="-369.8826" x2="1013.6695" y2="410.4899" gradientTransform="matrix(0.997 -0.0623 0.0632 1.0118 2.1453 57.7907)">
		<stop  offset="0.3553" style="stop-color:#EEAD92"/>
		<stop  offset="0.8139" style="stop-color:#6018DC"/>
	</linearGradient>
	<path class="st0" d="M2.55,407.97c54.14,2.2,130.57-29.65,246.83-57.39c270.47-64.53,289.27,4.69,1127.22,2.73
		c0,0,225.5-0.53,509.24-99.86c79.85-27.96,125.2-50.47,157.15-96.15c83.38-119.24,35.41-339.09-72.37-453.57
		c-133.51-141.81-310.18-70.26-894.37-40.63c-640.8,32.5-787.19-35.38-956.68,115.62C68.47-175.76,25.78-119.7-7.82-59.96"/>
</g>
<g id="Warstwa_3">
	<linearGradient id="SVGID_2_" gradientUnits="userSpaceOnUse" x1="893.1825" y1="1065.5969" x2="1116.3562" y2="-82.5324">
		<stop  offset="0" style="stop-color:#DCA774"/>
		<stop  offset="1" style="stop-color:#6018DC"/>
	</linearGradient>
	<path class="st1" d="M0.92,268.05c3.33-3.11,6.69-6.12,10.08-9.05c136.13-117.63,326.02-96.17,641-56
		c297.53,37.94,287.69,84.71,544,103c217.69,15.53,408.7,29.16,599-74c134.13-72.71,184.56-158.26,234-136
		c73.95,33.29,75.9,276.35-8,453c-204.87,431.35-919.16,461.48-1050,467c-291.2,12.28-746.76-35.75-970.55-207.51"/>
</g>
<g id="Warstwa_2">
	<linearGradient id="SVGID_3_" gradientUnits="userSpaceOnUse" x1="1001.1431" y1="1056.3186" x2="1037.1029" y2="370.165">
		<stop  offset="0.0575" style="stop-color:#EEAD92"/>
		<stop  offset="1" style="stop-color:#602EDC"/>
	</linearGradient>
	<path class="st2" d="M-8,623.82c16.33-26.78,33.42-51.51,48.98-72.74c37.61-40.23,109.2-105.79,217.3-144
		c134.88-47.68,252.43-26.57,333.4-11c176.94,34.03,179.11,87.32,348.28,139c69.31,21.17,384.51,117.45,638.01-13
		c60.48-31.13,105.72-69.12,194.48-82c107.46-15.59,241.86,10.98,242.11,11l0,0c-14.33-152.99,80.59,328.14,3.97,461
		c-25.63,44.45-91.69,119.69-537.8,149c-325.36,21.38-420.22-10.1-980.34-46c-272.35-17.46-421.3-21-501.1-57.9"/>
</g>
<g id="Warstwa_1">
	<linearGradient id="SVGID_4_" gradientUnits="userSpaceOnUse" x1="1014.4721" y1="1278.6233" x2="1014.4721" y2="574.8181">
		<stop  offset="0" style="stop-color:#EEAD92"/>
		<stop  offset="1" style="stop-color:#6018DC"/>
	</linearGradient>
	<path class="st3" d="M365,1182c-129.12,94.42-179.37,106.43-197,91c-18.09-15.83-1.34-60.1-22-71c-23.38-12.34-55.02,38.98-88,29
		c-27.51-8.32-37.92-53.84-51-111c-9.61-41.98-11.75-74.52-12.06-79.5c-6.81-110.4-13.24-216.86,52.95-292
		c7.93-9,30.12-33.66,66.43-49c61.5-25.98,112.46-3.63,157.88,3c139.11,20.32,171.04-114.77,335.99-127
		c14.65-1.09,162.77-9.95,257.04,87c68.63,70.57,52.59,139.47,138.63,224c15.39,15.12,65.77,63.64,135.74,85
		c165.6,50.54,354.61-77.44,476.54-160c82.33-55.75,143.66-110.99,251.27-128c35.1-5.55,106.65-15.88,145.37,26
		c31.77,34.36,26.75,85.65,21.18,139c-9.12,87.31-19.37,189.56-32.96,331.5"/>
	<linearGradient id="SVGID_5_" gradientUnits="userSpaceOnUse" x1="1258" y1="-225" x2="1258" y2="-225">
		<stop  offset="0.3655" style="stop-color:#EEAD92"/>
		<stop  offset="1" style="stop-color:#6018DC"/>
	</linearGradient>
	<path class="st4" d="M1258-225"/>
</g>
<g id="Warstwa_5">
</g>
</svg>
