<?xml version="1.0" encoding="utf-8"?>
<!-- Generator: Adobe Illustrator 24.1.1, SVG Export Plug-In . SVG Version: 6.00 Build 0)  -->
<svg version="1.1" xmlns="http://www.w3.org/2000/svg" xmlns:xlink="http://www.w3.org/1999/xlink" x="0px" y="0px"
	 viewBox="0 0 1920 1080" style="enable-background:new 0 0 1920 1080;" xml:space="preserve">
<style type="text/css">
	.st0{fill:#000C17;stroke:url(#SVGID_1_);stroke-miterlimit:10;}
	.st1{fill:none;stroke:#FFFFFF;stroke-miterlimit:10;}
	.st2{fill:none;stroke:url(#SVGID_2_);stroke-miterlimit:10;}
	.st3{fill:none;stroke:url(#SVGID_3_);stroke-miterlimit:10;}
	.st4{fill:none;stroke:url(#SVGID_4_);stroke-miterlimit:10;}
	.st5{fill:none;stroke:url(#SVGID_5_);stroke-miterlimit:10;}
	.st6{fill:none;stroke:url(#SVGID_6_);stroke-miterlimit:10;}
	.st7{fill:none;stroke:url(#SVGID_7_);stroke-miterlimit:10;}
	.st8{fill:none;stroke:url(#SVGID_8_);stroke-miterlimit:10;}
	.st9{fill:none;stroke:url(#SVGID_9_);stroke-miterlimit:10;}
	.st10{fill:none;stroke:url(#SVGID_10_);stroke-miterlimit:10;}
	.st11{fill:none;stroke:url(#SVGID_11_);stroke-miterlimit:10;}
	.st12{fill:none;stroke:url(#SVGID_12_);stroke-miterlimit:10;}
	.st13{fill:none;stroke:url(#SVGID_13_);stroke-miterlimit:10;}
	.st14{fill:none;stroke:url(#SVGID_14_);stroke-miterlimit:10;}
	.st15{fill:none;stroke:url(#SVGID_15_);stroke-miterlimit:10;}
	.st16{fill:none;stroke:url(#SVGID_16_);stroke-miterlimit:10;}
	.st17{fill:none;stroke:url(#SVGID_17_);stroke-miterlimit:10;}
	.st18{fill:none;stroke:url(#SVGID_18_);stroke-miterlimit:10;}
	.st19{fill:none;stroke:url(#SVGID_19_);stroke-miterlimit:10;}
	.st20{fill:none;stroke:url(#SVGID_20_);stroke-miterlimit:10;}
	.st21{fill:none;stroke:url(#SVGID_21_);stroke-miterlimit:10;}
	.st22{fill:none;stroke:url(#SVGID_22_);stroke-miterlimit:10;}
	.st23{fill:none;stroke:url(#SVGID_23_);stroke-miterlimit:10;}
	.st24{fill:none;stroke:url(#SVGID_24_);stroke-miterlimit:10;}
	.st25{fill:none;stroke:url(#SVGID_25_);stroke-miterlimit:10;}
	.st26{fill:none;stroke:url(#SVGID_26_);stroke-miterlimit:10;}
	.st27{fill:none;stroke:url(#SVGID_27_);stroke-miterlimit:10;}
	.st28{fill:none;stroke:url(#SVGID_28_);stroke-miterlimit:10;}
	.st29{fill:none;stroke:url(#SVGID_29_);stroke-miterlimit:10;}
	.st30{fill:none;stroke:url(#SVGID_30_);stroke-miterlimit:10;}
	.st31{fill:none;stroke:url(#SVGID_31_);stroke-miterlimit:10;}
	.st32{fill:none;stroke:url(#SVGID_32_);stroke-miterlimit:10;}
	.st33{fill:none;stroke:url(#SVGID_33_);stroke-miterlimit:10;}
	.st34{fill:none;stroke:url(#SVGID_34_);stroke-miterlimit:10;}
	.st35{fill:none;stroke:url(#SVGID_35_);stroke-miterlimit:10;}
	.st36{fill:none;stroke:url(#SVGID_36_);stroke-miterlimit:10;}
	.st37{fill:none;stroke:url(#SVGID_37_);stroke-miterlimit:10;}
	.st38{fill:none;stroke:url(#SVGID_38_);stroke-miterlimit:10;}
	.st39{fill:none;stroke:url(#SVGID_39_);stroke-miterlimit:10;}
	.st40{fill:none;stroke:url(#SVGID_40_);stroke-miterlimit:10;}
	.st41{fill:none;stroke:url(#SVGID_41_);stroke-miterlimit:10;}
	.st42{fill:none;stroke:url(#SVGID_42_);stroke-miterlimit:10;}
	.st43{fill:none;stroke:url(#SVGID_43_);stroke-miterlimit:10;}
	.st44{fill:none;stroke:url(#SVGID_44_);stroke-miterlimit:10;}
	.st45{fill:none;stroke:url(#SVGID_45_);stroke-miterlimit:10;}
	.st46{fill:none;stroke:url(#SVGID_46_);stroke-miterlimit:10;}
	.st47{fill:none;stroke:url(#SVGID_47_);stroke-miterlimit:10;}
	.st48{fill:none;stroke:url(#SVGID_48_);stroke-miterlimit:10;}
	.st49{fill:none;stroke:url(#SVGID_49_);stroke-miterlimit:10;}
	.st50{fill:none;stroke:url(#SVGID_50_);stroke-miterlimit:10;}
	.st51{fill:none;stroke:url(#SVGID_51_);stroke-miterlimit:10;}
	.st52{fill:none;stroke:url(#SVGID_52_);stroke-miterlimit:10;}
	.st53{fill:none;stroke:url(#SVGID_53_);stroke-miterlimit:10;}
	.st54{fill:none;stroke:url(#SVGID_54_);stroke-miterlimit:10;}
	.st55{fill:none;stroke:url(#SVGID_55_);stroke-miterlimit:10;}
	.st56{fill:none;stroke:url(#SVGID_56_);stroke-miterlimit:10;}
	.st57{fill:none;stroke:url(#SVGID_57_);stroke-miterlimit:10;}
	.st58{fill:none;stroke:url(#SVGID_58_);stroke-miterlimit:10;}
	.st59{fill:none;stroke:url(#SVGID_59_);stroke-miterlimit:10;}
	.st60{fill:none;stroke:url(#SVGID_60_);stroke-miterlimit:10;}
	.st61{fill:none;stroke:url(#SVGID_61_);stroke-miterlimit:10;}
	.st62{fill:none;stroke:url(#SVGID_62_);stroke-miterlimit:10;}
	.st63{fill:none;stroke:url(#SVGID_63_);stroke-miterlimit:10;}
	.st64{fill:none;stroke:url(#SVGID_64_);stroke-miterlimit:10;}
	.st65{fill:none;stroke:url(#SVGID_65_);stroke-miterlimit:10;}
	.st66{fill:none;stroke:url(#SVGID_66_);stroke-miterlimit:10;}
	.st67{fill:none;stroke:url(#SVGID_67_);stroke-miterlimit:10;}
	.st68{fill:none;stroke:url(#SVGID_68_);stroke-miterlimit:10;}
	.st69{fill:none;stroke:url(#SVGID_69_);stroke-miterlimit:10;}
	.st70{fill:none;stroke:url(#SVGID_70_);stroke-miterlimit:10;}
	.st71{fill:none;stroke:url(#SVGID_71_);stroke-miterlimit:10;}
	.st72{fill:none;stroke:url(#SVGID_72_);stroke-miterlimit:10;}
	.st73{fill:none;stroke:url(#SVGID_73_);stroke-miterlimit:10;}
	.st74{fill:none;stroke:url(#SVGID_74_);stroke-miterlimit:10;}
	.st75{fill:none;stroke:url(#SVGID_75_);stroke-miterlimit:10;}
	.st76{fill:none;stroke:url(#SVGID_76_);stroke-miterlimit:10;}
	.st77{fill:none;stroke:url(#SVGID_77_);stroke-miterlimit:10;}
	.st78{fill:none;stroke:url(#SVGID_78_);stroke-miterlimit:10;}
	.st79{fill:none;stroke:url(#SVGID_79_);stroke-miterlimit:10;}
	.st80{fill:none;stroke:url(#SVGID_80_);stroke-miterlimit:10;}
	.st81{fill:none;stroke:url(#SVGID_81_);stroke-miterlimit:10;}
	.st82{fill:none;stroke:url(#SVGID_82_);stroke-miterlimit:10;}
	.st83{fill:none;stroke:url(#SVGID_83_);stroke-miterlimit:10;}
	.st84{fill:none;stroke:url(#SVGID_84_);stroke-miterlimit:10;}
	.st85{fill:none;stroke:url(#SVGID_85_);stroke-miterlimit:10;}
	.st86{fill:none;stroke:url(#SVGID_86_);stroke-miterlimit:10;}
	.st87{fill:none;stroke:url(#SVGID_87_);stroke-miterlimit:10;}
	.st88{fill:none;stroke:url(#SVGID_88_);stroke-miterlimit:10;}
	.st89{fill:none;stroke:url(#SVGID_89_);stroke-miterlimit:10;}
	.st90{fill:none;stroke:url(#SVGID_90_);stroke-miterlimit:10;}
	.st91{fill:none;stroke:url(#SVGID_91_);stroke-miterlimit:10;}
	.st92{fill:none;stroke:url(#SVGID_92_);stroke-miterlimit:10;}
	.st93{fill:none;stroke:url(#SVGID_93_);stroke-miterlimit:10;}
	.st94{fill:none;stroke:url(#SVGID_94_);stroke-miterlimit:10;}
	.st95{fill:none;stroke:url(#SVGID_95_);stroke-miterlimit:10;}
	.st96{fill:none;stroke:url(#SVGID_96_);stroke-miterlimit:10;}
	.st97{fill:none;stroke:url(#SVGID_97_);stroke-miterlimit:10;}
	.st98{fill:none;stroke:url(#SVGID_98_);stroke-miterlimit:10;}
	.st99{fill:none;stroke:url(#SVGID_99_);stroke-miterlimit:10;}
	.st100{fill:none;stroke:url(#SVGID_100_);stroke-miterlimit:10;}
	.st101{fill:none;stroke:url(#SVGID_101_);stroke-miterlimit:10;}
	.st102{fill:none;stroke:url(#SVGID_102_);stroke-miterlimit:10;}
	.st103{fill:none;stroke:url(#SVGID_103_);stroke-miterlimit:10;}
	.st104{fill:none;stroke:url(#SVGID_104_);stroke-miterlimit:10;}
	.st105{fill:none;stroke:url(#SVGID_105_);stroke-miterlimit:10;}
	.st106{fill:none;stroke:url(#SVGID_106_);stroke-miterlimit:10;}
	.st107{fill:none;stroke:url(#SVGID_107_);stroke-miterlimit:10;}
	.st108{fill:none;stroke:url(#SVGID_108_);stroke-miterlimit:10;}
	.st109{fill:none;stroke:url(#SVGID_109_);stroke-miterlimit:10;}
	.st110{fill:none;stroke:url(#SVGID_110_);stroke-miterlimit:10;}
	.st111{fill:none;stroke:url(#SVGID_111_);stroke-miterlimit:10;}
</style>
<g id="Warstwa_4">
	<radialGradient id="SVGID_1_" cx="959.5" cy="540.5" r="779.3268" gradientUnits="userSpaceOnUse">
		<stop  offset="0" style="stop-color:#0093E9"/>
		<stop  offset="1" style="stop-color:#80D0C7"/>
	</radialGradient>
	<rect x="-0.5" y="0.5" class="st0" width="1920" height="1080"/>
</g>
<g id="lines">
	<path class="st1" d="M1615.5,249.5"/>
	<path class="st1" d="M-304.5,249.5"/>
	<g>
		<g>
			<g>
				<radialGradient id="SVGID_2_" cx="960.9999" cy="1121.4746" r="678.8226" gradientUnits="userSpaceOnUse">
					<stop  offset="0" style="stop-color:#0093E9"/>
					<stop  offset="1" style="stop-color:#80D0C7"/>
				</radialGradient>
				<path class="st2" d="M1,1121.5c486.15-0.07,972.25-0.08,1458.4-0.01c153.87,0.02,307.73,0.01,461.6,0.01"/>
			</g>
			<g>
				<radialGradient id="SVGID_3_" cx="960.9845" cy="1099.9652" r="678.8383" gradientUnits="userSpaceOnUse">
					<stop  offset="0" style="stop-color:#0093E9"/>
					<stop  offset="1" style="stop-color:#80D0C7"/>
				</radialGradient>
				<path class="st3" d="M0.97,1101.27c127.96-0.54,255.93,2.07,383.88,0.73c132.36-1.38,265.03-8.29,397.37-3
					c226.27,9.04,453.08-0.85,679.51,1.49c153.09,1.58,306.18,1.09,459.27,1.05"/>
			</g>
			<g>
				<radialGradient id="SVGID_4_" cx="960.9465" cy="1078.2217" r="678.8755" gradientUnits="userSpaceOnUse">
					<stop  offset="0" style="stop-color:#0093E9"/>
					<stop  offset="1" style="stop-color:#80D0C7"/>
				</radialGradient>
				<path class="st4" d="M0.89,1080.73c130.05-0.64,260.19,5.31,390.22,2.09c132.86-3.29,266.66-16.72,399.48-6.21
					c224.94,17.79,451.02-4.72,676.51,1.61c151.29,4.25,302.56,3.53,453.9,3.49"/>
			</g>
			<g>
				<radialGradient id="SVGID_5_" cx="960.8917" cy="1056.4576" r="678.9376" gradientUnits="userSpaceOnUse">
					<stop  offset="0" style="stop-color:#0093E9"/>
					<stop  offset="1" style="stop-color:#80D0C7"/>
				</radialGradient>
				<path class="st5" d="M0.78,1060.06c133.08-0.42,266.43,9.85,399.46,3.75c133.86-6.15,268.98-26.9,402.82-10.41
					c46.41,5.72,92.25,12.25,139.13,12.36c59.36,0.14,118.47-2.45,177.71-6.15c118.56-7.42,236.14-10.83,354.86-4.5
					c148.74,7.94,297.33,7,446.26,6.98"/>
			</g>
			<g>
				<radialGradient id="SVGID_6_" cx="960.8262" cy="1034.8596" r="679.025" gradientUnits="userSpaceOnUse">
					<stop  offset="0" style="stop-color:#0093E9"/>
					<stop  offset="1" style="stop-color:#80D0C7"/>
				</radialGradient>
				<path class="st6" d="M0.64,1039.42c136.65,0.03,274.09,15.39,410.6,5.61c135.57-9.71,271.35-37.92,406.97-15.26
					c49.19,8.22,97.8,18.06,147.86,18.71c58.24,0.76,116.29-4.33,174.19-9.95c115.3-11.19,227.98-16.96,343.62-6.99
					c145.67,12.55,290.99,11.14,437.13,11.15"/>
			</g>
			<g>
				<radialGradient id="SVGID_7_" cx="960.7542" cy="1013.5327" r="679.1348" gradientUnits="userSpaceOnUse">
					<stop  offset="0" style="stop-color:#0093E9"/>
					<stop  offset="1" style="stop-color:#80D0C7"/>
				</radialGradient>
				<path class="st7" d="M0.5,1018.99c140.38,0.6,282.57,21.52,422.64,7.57c138.06-13.75,273.21-49.07,411.5-20.42
					c52.08,10.79,103.77,24.21,157.24,25.53c56.98,1.41,114.08-6.39,170.4-14.05c111.88-15.22,218.93-23.89,331.43-9.66
					c142.27,18,284.04,15.6,427.29,15.65"/>
			</g>
			<g>
				<radialGradient id="SVGID_8_" cx="960.6835" cy="991.4736" r="679.2791" gradientUnits="userSpaceOnUse">
					<stop  offset="0" style="stop-color:#0093E9"/>
					<stop  offset="1" style="stop-color:#80D0C7"/>
				</radialGradient>
				<path class="st8" d="M0.35,998.94c143.91,1.17,291.25,27.8,434.6,9.52c77.34-9.86,153.55-27.05,230.88-36.93
					c64.1-8.18,122.45-3.78,185.12,11.37c54.88,13.27,109.73,30.29,166.56,32.31c55.74,1.98,111.99-8.42,166.64-18.12
					c56.35-10,112.76-21.07,170.04-23.94c50.08-2.51,100.02,3.07,149.29,11.63c56.41,9.8,111.88,18.97,169.33,19.43
					c82.72,0.67,165.46,0.63,248.18,0.68"/>
			</g>
			<g>
				<radialGradient id="SVGID_9_" cx="960.6205" cy="970.6929" r="679.4191" gradientUnits="userSpaceOnUse">
					<stop  offset="0" style="stop-color:#0093E9"/>
					<stop  offset="1" style="stop-color:#80D0C7"/>
				</radialGradient>
				<path class="st9" d="M0.22,979.46c77.79,0.86,155.31,7.2,232.9,12.28c71.04,4.65,141.88,9.89,212.58-0.92
					c77.28-11.82,153.01-32.02,230.29-43.85c66.42-10.17,125.15-3.95,189.76,13.54c57.38,15.53,115.21,35.89,175.11,38.53
					c54.67,2.41,110.13-10.22,163.21-21.83c54.71-11.97,109.49-25.13,165.55-28.72c48.07-3.08,95.99,3.4,142.81,13.97
					c53.21,12.01,104.88,22.75,159.75,23.37c82.93,0.93,165.9,0.75,248.83,0.82"/>
			</g>
			<g>
				<radialGradient id="SVGID_10_" cx="960.5715" cy="950.8339" r="679.5454" gradientUnits="userSpaceOnUse">
					<stop  offset="0" style="stop-color:#0093E9"/>
					<stop  offset="1" style="stop-color:#80D0C7"/>
				</radialGradient>
				<path class="st10" d="M0.12,960.71c79.81,0.99,159.3,8.23,238.86,13.97c71.99,5.2,143.89,11.42,215.43-1
					c77.26-13.41,152.53-36.29,229.79-49.71c68.2-11.85,127.37-3.96,193.41,15.34c59.42,17.37,119.72,40.62,182.17,43.66
					c53.95,2.63,108.58-11.54,160.41-24.83c53.32-13.67,106.7-28.66,161.83-32.69c46.61-3.4,92.87,3.48,137.72,15.9
					c50.67,14.04,98.88,25.92,151.91,26.59c83.1,1.05,166.27,0.86,249.37,0.93"/>
			</g>
			<g>
				<radialGradient id="SVGID_11_" cx="960.5427" cy="932.1812" r="679.6362" gradientUnits="userSpaceOnUse">
					<stop  offset="0" style="stop-color:#0093E9"/>
					<stop  offset="1" style="stop-color:#80D0C7"/>
				</radialGradient>
				<path class="st11" d="M0.06,942.86c81.17,0.91,162.01,8.89,242.89,15.12c72.44,5.58,145.22,12.58,217.14-0.86
					c77.28-14.44,152.14-39.54,229.42-54c69.17-12.94,128.88-3.88,195.63,16.63c60.8,18.68,122.8,44.08,187.03,47.2
					c53.68,2.61,107.43-12.15,158.55-26.79c98.85-28.31,193.04-50.77,293.93-18.23c49.02,15.81,94.54,28.15,146.64,28.75
					c83.23,0.96,166.51,0.93,249.75,1"/>
			</g>
			<g>
				<radialGradient id="SVGID_12_" cx="960.5398" cy="915.0322" r="679.6695" gradientUnits="userSpaceOnUse">
					<stop  offset="0" style="stop-color:#0093E9"/>
					<stop  offset="1" style="stop-color:#80D0C7"/>
				</radialGradient>
				<path class="st12" d="M0.04,926.13c81.62,0.73,162.9,9.07,244.21,15.49c72.33,5.71,145.75,13.24,217.57-0.44
					c77.3-14.73,151.79-41.37,229.09-56.12c69.2-13.2,129.43-3.75,196.06,17.2c61.32,19.28,124.01,45.83,189.01,48.6
					c53.88,2.29,106.81-11.95,157.91-27.4c97.28-29.41,192.96-53.55,292.44-18.85c48.56,16.94,92.67,29.11,144.78,29.51
					c83.31,0.63,166.64,1,249.95,1.01"/>
			</g>
			<g>
				<radialGradient id="SVGID_13_" cx="960.5466" cy="899.4887" r="679.6827" gradientUnits="userSpaceOnUse">
					<stop  offset="0" style="stop-color:#0093E9"/>
					<stop  offset="1" style="stop-color:#80D0C7"/>
				</radialGradient>
				<path class="st13" d="M0.05,911.96c80.77,1.19,161.21,8.74,241.72,14.77c72.1,5.39,145.79,13.37,217.33-0.44
					c76.79-14.83,150.53-42.31,227.32-57.16c69.33-13.41,129.93-3.56,196.64,17.46c61.75,19.46,125.17,46.64,190.67,49.19
					c53.83,2.09,106.75-12.07,157.86-27.35c97.23-29.08,193.34-53.64,292.64-18.58c48.57,17.15,92.55,29.48,144.76,29.75
					c84.02,0.44,168.05,1.51,252.07,1.29"/>
			</g>
			<g>
				<radialGradient id="SVGID_14_" cx="960.5543" cy="885.2452" r="679.7065" gradientUnits="userSpaceOnUse">
					<stop  offset="0" style="stop-color:#0093E9"/>
					<stop  offset="1" style="stop-color:#80D0C7"/>
				</radialGradient>
				<path class="st14" d="M0.06,900.84c79.06,1.37,157.85,7.93,236.71,13.31c71.28,4.86,144.54,12.98,215.17-1.11
					c75.95-15.16,148.56-43.65,224.5-58.83c69.7-13.93,130.82-3.32,197.85,17.86c62.66,19.8,127.32,47.82,193.83,50.32
					c53.84,2.02,106.86-12.04,158.04-27.11c97.3-28.64,193.96-53.53,293.09-17.9c48.62,17.48,92.48,30.04,144.88,30.27
					c85.64,0.38,171.29,2.26,256.93,1.95"/>
			</g>
			<g>
				<radialGradient id="SVGID_15_" cx="960.5627" cy="872.1475" r="679.7402" gradientUnits="userSpaceOnUse">
					<stop  offset="0" style="stop-color:#0093E9"/>
					<stop  offset="1" style="stop-color:#80D0C7"/>
				</radialGradient>
				<path class="st15" d="M0.07,892.32c76.65,1.32,153.1,6.72,229.6,11.24c69.97,4.14,142.23,12.14,211.4-2.35
					c74.84-15.68,145.97-45.32,220.81-61.02c70.25-14.73,132.06-3.04,199.6,18.38c63.99,20.29,130.29,49.3,198.23,51.9
					c53.89,2.05,107.1-11.89,158.43-26.7c97.47-28.11,194.78-53.25,293.75-16.87c48.69,17.9,92.46,30.77,145.1,31.02
					c88.03,0.42,176.05,3.22,264.08,2.92"/>
			</g>
			<g>
				<radialGradient id="SVGID_16_" cx="960.5715" cy="860.0416" r="679.7829" gradientUnits="userSpaceOnUse">
					<stop  offset="0" style="stop-color:#0093E9"/>
					<stop  offset="1" style="stop-color:#80D0C7"/>
				</radialGradient>
				<path class="st16" d="M0.07,885.98c73.67,1.11,147.21,5.19,220.79,8.68c68.27,3.24,139.06,10.93,206.34-4.03
					c73.5-16.34,142.9-47.27,216.4-63.63c70.91-15.79,133.6-2.71,201.78,19c65.65,20.9,133.91,51.03,203.64,53.83
					c53.98,2.17,107.46-11.65,158.97-26.15c97.72-27.51,195.75-52.84,294.58-15.58c48.8,18.4,92.47,31.64,145.41,31.96
					c91.04,0.56,182.05,4.33,273.09,4.14"/>
			</g>
			<g>
				<radialGradient id="SVGID_17_" cx="960.5809" cy="848.8895" r="679.8372" gradientUnits="userSpaceOnUse">
					<stop  offset="0" style="stop-color:#0093E9"/>
					<stop  offset="1" style="stop-color:#80D0C7"/>
				</radialGradient>
				<path class="st17" d="M0.08,881.38c70.26,0.8,140.46,3.44,210.68,5.74c66.26,2.17,135.23,9.41,200.28-6.06
					c72.01-17.13,139.45-49.41,211.45-66.56c71.63-17.06,135.41-2.34,204.29,19.68c67.57,21.6,138.04,52.92,209.81,56.04
					c54.1,2.35,107.9-11.33,159.64-25.51c98.03-26.86,196.85-52.32,295.55-14.07c48.91,18.95,92.51,32.61,145.79,33.04
					c94.52,0.78,188.98,5.56,283.5,5.56"/>
			</g>
			<g>
				<radialGradient id="SVGID_18_" cx="960.5919" cy="840.0905" r="679.955" gradientUnits="userSpaceOnUse">
					<stop  offset="0" style="stop-color:#0093E9"/>
					<stop  offset="1" style="stop-color:#80D0C7"/>
				</radialGradient>
				<path class="st18" d="M0.09,878.08c66.57,0.42,133.13,1.54,199.69,2.55c64.06,0.97,130.94,7.67,193.56-8.32
					c70.41-17.99,135.73-51.7,206.13-69.71c72.34-18.51,137.43-1.92,207.02,20.42C876.16,845.38,949,877.95,1023,881.45
					c54.24,2.56,108.4-10.96,160.39-24.79c98.38-26.17,198.03-51.71,296.61-12.42c49.04,19.55,92.57,33.65,146.22,34.22
					c98.32,1.05,196.55,6.85,294.87,7.1"/>
			</g>
			<g>
				<radialGradient id="SVGID_19_" cx="960.6031" cy="832.6789" r="680.1172" gradientUnits="userSpaceOnUse">
					<stop  offset="0" style="stop-color:#0093E9"/>
					<stop  offset="1" style="stop-color:#80D0C7"/>
				</radialGradient>
				<path class="st19" d="M0.1,875.67c62.74,0.02,125.48-0.42,188.23-0.79c61.75-0.36,126.39,5.79,186.47-10.72
					c68.77-18.9,131.86-54.06,200.61-72.98c73-20.09,139.61-1.46,209.87,21.18c71.87,23.16,147.15,57.01,223.48,60.93
					c54.39,2.79,108.93-10.57,161.19-24.04c98.77-25.46,199.25-51.06,297.71-10.69c49.17,20.16,92.64,34.73,146.67,35.45
					c102.29,1.37,204.46,8.18,306.77,8.72"/>
			</g>
			<g>
				<radialGradient id="SVGID_20_" cx="960.6117" cy="825.6674" r="680.2985" gradientUnits="userSpaceOnUse">
					<stop  offset="0" style="stop-color:#0093E9"/>
					<stop  offset="1" style="stop-color:#80D0C7"/>
				</radialGradient>
				<path class="st20" d="M0.11,873.69c58.93-0.35,117.79-2.35,176.69-4.14c59.44-1.81,121.78,3.86,179.33-13.13
					c67.13-19.81,127.95-56.42,195.07-76.26c73.56-21.74,141.89-0.97,212.74,21.95c74.08,23.97,151.82,59.08,230.5,63.44
					c54.55,3.03,109.46-10.16,161.99-23.28c99.15-24.76,200.47-50.4,298.82-8.96c49.3,20.77,92.71,35.82,147.13,36.69
					c106.3,1.7,212.42,9.51,318.73,10.34"/>
			</g>
			<g>
				<radialGradient id="SVGID_21_" cx="960.62" cy="818.8083" r="680.4897" gradientUnits="userSpaceOnUse">
					<stop  offset="0" style="stop-color:#0093E9"/>
					<stop  offset="1" style="stop-color:#80D0C7"/>
				</radialGradient>
				<path class="st21" d="M0.12,871.72c55.29-0.66,110.32-4.16,165.5-7.39c57.22-3.35,117.29,1.97,172.44-15.45
					c65.55-20.7,124.13-58.74,189.66-79.46c74.01-23.4,144.19-0.46,215.52,22.69c76.24,24.75,156.36,61.09,237.32,65.88
					c54.71,3.24,109.97-9.78,162.77-22.55c99.53-24.08,201.66-49.75,299.9-7.27c49.42,21.36,92.77,36.88,147.56,37.89
					c110.17,2.03,220.14,10.8,330.33,11.92"/>
			</g>
			<g>
				<radialGradient id="SVGID_22_" cx="960.6284" cy="811.8556" r="680.6813" gradientUnits="userSpaceOnUse">
					<stop  offset="0" style="stop-color:#0093E9"/>
					<stop  offset="1" style="stop-color:#80D0C7"/>
				</radialGradient>
				<path class="st22" d="M0.13,869.33c51.97-0.89,103.34-5.76,155.05-10.43c55.18-4.98,113.12,0.23,166.13-17.57
					c64.08-21.52,120.5-60.93,184.57-82.48c74.33-24.99,146.42,0.06,218.11,23.4c78.24,25.47,160.61,63,243.69,68.16
					c54.85,3.41,110.43-9.44,163.47-21.88c99.87-23.43,202.78-49.15,300.9-5.71c49.52,21.92,92.81,37.89,147.96,39.01
					c113.78,2.32,227.32,12.01,341.11,13.38"/>
			</g>
			<g>
				<radialGradient id="SVGID_23_" cx="960.6369" cy="804.5645" r="680.8618" gradientUnits="userSpaceOnUse">
					<stop  offset="0" style="stop-color:#0093E9"/>
					<stop  offset="1" style="stop-color:#80D0C7"/>
				</radialGradient>
				<path class="st23" d="M0.14,866.09c49.13-1.01,97.09-7.08,145.76-13.13c53.43-6.65,109.48-1.24,160.7-19.38
					c62.79-22.24,117.19-62.94,179.96-85.2c74.52-26.43,148.48,0.56,220.41,24.04c80.02,26.12,164.41,64.74,249.38,70.2
					c54.97,3.53,110.81-9.16,164.06-21.3c100.16-22.83,203.79-48.63,301.79-4.34c49.61,22.43,92.83,38.8,148.3,40
					c116.97,2.54,233.65,13.11,350.64,14.68"/>
			</g>
			<g>
				<radialGradient id="SVGID_24_" cx="960.6456" cy="796.691" r="681.0181" gradientUnits="userSpaceOnUse">
					<stop  offset="0" style="stop-color:#0093E9"/>
					<stop  offset="1" style="stop-color:#80D0C7"/>
				</radialGradient>
				<path class="st24" d="M0.15,861.55c46.93-1.01,91.85-8.01,138.03-15.38c52.04-8.3,106.57-2.33,156.46-20.78
					c61.7-22.81,114.32-64.71,176.01-87.55c74.61-27.62,150.27,1.03,222.32,24.59c81.48,26.65,167.61,66.27,254.15,71.9
					c55.06,3.58,111.1-8.97,164.5-20.84c100.38-22.31,204.65-48.24,302.51-3.21c49.68,22.86,92.81,39.58,148.56,40.82
					c119.59,2.66,238.86,14.08,358.47,15.74"/>
			</g>
			<g>
				<radialGradient id="SVGID_25_" cx="960.6547" cy="787.9913" r="681.1363" gradientUnits="userSpaceOnUse">
					<stop  offset="0" style="stop-color:#0093E9"/>
					<stop  offset="1" style="stop-color:#80D0C7"/>
				</radialGradient>
				<path class="st25" d="M0.16,855.3c45.47-0.89,87.88-8.51,132.27-17.05c51.11-9.83,104.62-2.93,153.73-21.65
					c60.89-23.21,112-66.16,172.88-89.4c74.62-28.48,151.67,1.43,223.72,25.04c82.54,27.04,170.06,67.54,257.75,73.19
					c55.09,3.55,111.26-8.89,164.76-20.53c100.51-21.88,205.33-48,303.04-2.41c49.72,23.2,92.75,40.2,148.71,41.42
					c121.49,2.66,242.63,14.88,364.15,16.51"/>
			</g>
			<g>
				<radialGradient id="SVGID_26_" cx="960.6641" cy="778.2212" r="681.2028" gradientUnits="userSpaceOnUse">
					<stop  offset="0" style="stop-color:#0093E9"/>
					<stop  offset="1" style="stop-color:#80D0C7"/>
				</radialGradient>
				<path class="st26" d="M0.16,846.88c44.83-0.62,85.46-8.55,128.89-18.04c50.76-11.09,103.88-2.93,152.81-21.88
					c60.38-23.38,110.37-67.25,170.74-90.67c74.57-28.92,152.56,1.75,224.53,25.35c83.11,27.26,171.6,68.5,259.94,73.98
					c55.08,3.41,111.26-8.94,164.79-20.42c100.52-21.55,205.79-47.96,303.33-2c49.73,23.44,92.64,40.63,148.74,41.76
					c122.54,2.49,244.68,15.49,367.24,16.92"/>
			</g>
			<g>
				<radialGradient id="SVGID_27_" cx="960.6719" cy="767.5389" r="681.2125" gradientUnits="userSpaceOnUse">
					<stop  offset="0" style="stop-color:#0093E9"/>
					<stop  offset="1" style="stop-color:#80D0C7"/>
				</radialGradient>
				<path class="st27" d="M0.17,836.27c44.71-0.62,85.04-8.47,128.3-18.08c50.82-11.29,104.04-2.84,153.06-21.85
					c60.26-23.37,109.92-67.51,170.16-90.91c74.56-28.96,152.75,1.81,224.68,25.41c83.2,27.29,171.87,68.7,260.32,74.1
					c55.08,3.37,111.21-8.94,164.74-20.43c100.5-21.56,205.86-48.1,303.35-2.02c49.82,23.55,92.7,40.95,148.95,41.9
					c122.62,2.09,244.8,15.95,367.44,17.01"/>
			</g>
			<g>
				<radialGradient id="SVGID_28_" cx="960.6805" cy="757.5979" r="681.2141" gradientUnits="userSpaceOnUse">
					<stop  offset="0" style="stop-color:#0093E9"/>
					<stop  offset="1" style="stop-color:#80D0C7"/>
				</radialGradient>
				<path class="st28" d="M0.19,825.34c44.51-0.92,85.35-8.45,128.61-17.51c50.84-10.64,104.14-2.91,153.07-21.85
					c60.26-23.32,110.06-67.21,170.3-90.56c74.6-28.92,152.61,1.73,224.61,25.33c83.15,27.25,171.57,68.38,259.94,73.94
					c55.17,3.47,111.26-8.87,164.84-20.52c100.78-21.92,205.91-48.33,303.7-2.13c50.13,23.68,93.23,41.48,149.85,42.27
					c122.19,1.68,243.89,16.48,366.09,17.22"/>
			</g>
			<g>
				<radialGradient id="SVGID_29_" cx="960.6924" cy="748.5601" r="681.2182" gradientUnits="userSpaceOnUse">
					<stop  offset="0" style="stop-color:#0093E9"/>
					<stop  offset="1" style="stop-color:#80D0C7"/>
				</radialGradient>
				<path class="st29" d="M0.21,814.45c44.37-1.14,85.77-8.22,129.1-16.57c50.91-9.81,104.34-2.74,153.21-21.58
					c60.27-23.23,110.23-66.84,170.48-90.1c74.61-28.81,152.38,1.64,224.41,25.22c83.03,27.18,171.15,68.03,259.35,73.69
					c55.27,3.54,111.36-8.89,164.99-20.75c101.19-22.39,206.34-48.85,304.55-2.23c50.51,23.97,94.19,42.22,151.27,42.88
					c121.39,1.4,242.22,17.1,363.62,17.62"/>
			</g>
			<g>
				<radialGradient id="SVGID_30_" cx="960.7073" cy="740.3853" r="681.2247" gradientUnits="userSpaceOnUse">
					<stop  offset="0" style="stop-color:#0093E9"/>
					<stop  offset="1" style="stop-color:#80D0C7"/>
				</radialGradient>
				<path class="st30" d="M0.23,803.63c44.28-1.28,86.31-7.77,129.77-15.29c51.03-8.83,104.6-2.34,153.48-21.07
					c60.29-23.1,110.44-66.4,170.71-89.52c74.6-28.63,152.07,1.56,224.09,25.1c82.83,27.08,170.61,67.64,258.58,73.35
					c55.4,3.6,111.51-9,165.2-21.12c102.01-23.04,206.78-49.3,305.85-2.32c51.11,24.24,95.42,43.15,153.18,43.73
					c120.24,1.21,239.86,17.82,360.11,18.2"/>
			</g>
			<g>
				<radialGradient id="SVGID_31_" cx="960.7248" cy="733.0331" r="681.2334" gradientUnits="userSpaceOnUse">
					<stop  offset="0" style="stop-color:#0093E9"/>
					<stop  offset="1" style="stop-color:#80D0C7"/>
				</radialGradient>
				<path class="st31" d="M0.26,792.89c44.27-1.36,86.93-7.14,130.6-13.71c51.18-7.7,104.94-1.73,153.86-20.33
					C345.04,735.91,395.4,692.96,455.7,670c74.56-28.39,151.69,1.47,223.67,24.97c82.57,26.96,169.96,67.21,257.62,72.94
					c55.54,3.63,111.71-9.2,165.46-21.61c103.06-23.81,207.4-49.84,307.56-2.39c51.84,24.56,96.96,44.25,155.54,44.8
					c118.78,1.12,236.85,18.62,355.65,18.94"/>
			</g>
			<g>
				<radialGradient id="SVGID_32_" cx="960.7444" cy="726.4634" r="681.2442" gradientUnits="userSpaceOnUse">
					<stop  offset="0" style="stop-color:#0093E9"/>
					<stop  offset="1" style="stop-color:#80D0C7"/>
				</radialGradient>
				<path class="st32" d="M0.3,782.26c44.35-1.38,87.65-6.32,131.58-11.85c51.35-6.46,105.34-0.93,154.34-19.39
					c60.36-22.73,110.93-65.32,171.28-88.08c74.49-28.1,151.24,1.38,223.16,24.82c82.24,26.81,169.21,66.75,256.51,72.46
					c55.7,3.64,111.94-9.47,165.76-22.21c104.33-24.7,208.19-50.48,309.65-2.45c52.68,24.94,98.77,45.49,158.3,46.06
					c117.04,1.12,233.26,19.51,350.32,19.83"/>
			</g>
			<g>
				<radialGradient id="SVGID_33_" cx="960.7661" cy="720.6356" r="681.2569" gradientUnits="userSpaceOnUse">
					<stop  offset="0" style="stop-color:#0093E9"/>
					<stop  offset="1" style="stop-color:#80D0C7"/>
				</radialGradient>
				<path class="st33" d="M0.34,771.77c44.51-1.34,88.43-5.34,132.7-9.73c51.55-5.11,105.79,0.05,154.92-18.26
					c60.4-22.5,111.22-64.7,171.61-87.23c74.41-27.76,150.73,1.29,222.56,24.66c81.86,26.64,168.37,66.27,255.25,71.92
					c55.87,3.63,112.21-9.82,166.1-22.92c105.79-25.71,209.12-51.19,312.09-2.5c53.63,25.36,100.84,46.88,161.44,47.5
					c115.03,1.19,229.15,20.48,344.2,20.85"/>
			</g>
			<g>
				<radialGradient id="SVGID_34_" cx="960.7892" cy="715.5095" r="681.2714" gradientUnits="userSpaceOnUse">
					<stop  offset="0" style="stop-color:#0093E9"/>
					<stop  offset="1" style="stop-color:#80D0C7"/>
				</radialGradient>
				<path class="st34" d="M0.38,761.44c44.76-1.26,89.28-4.21,133.93-7.39c51.75-3.68,106.27,1.18,155.58-16.96
					c60.46-22.25,111.53-64.03,171.98-86.3c74.3-27.38,150.16,1.2,221.88,24.49c81.43,26.44,167.45,65.75,253.87,71.32
					c56.06,3.61,112.52-10.23,166.48-23.71c55.65-13.9,111.51-29.57,169.1-32.43c52.25-2.59,98.59,7.62,145.73,29.89
					c54.67,25.82,103.14,48.38,164.9,49.1c112.81,1.32,224.56,21.51,337.39,21.98"/>
			</g>
			<g>
				<radialGradient id="SVGID_35_" cx="960.8136" cy="711.0447" r="681.2876" gradientUnits="userSpaceOnUse">
					<stop  offset="0" style="stop-color:#0093E9"/>
					<stop  offset="1" style="stop-color:#80D0C7"/>
				</radialGradient>
				<path class="st35" d="M0.42,751.3c45.11-1.13,90.18-2.95,135.27-4.85c51.97-2.19,106.79,2.45,156.32-15.53
					c60.53-21.97,111.85-63.32,172.37-85.31c74.18-26.96,149.55,1.11,221.14,24.31c80.97,26.23,166.46,65.22,252.37,70.68
					c56.26,3.57,112.86-10.7,166.9-24.58c55.79-14.33,111.82-30.52,169.65-33.53c53.16-2.77,100.28,8.36,148.18,30.96
					c55.79,26.33,105.64,49.99,168.65,50.84c110.38,1.5,219.56,22.62,329.96,23.23"/>
			</g>
			<g>
				<radialGradient id="SVGID_36_" cx="960.8389" cy="707.2009" r="681.3053" gradientUnits="userSpaceOnUse">
					<stop  offset="0" style="stop-color:#0093E9"/>
					<stop  offset="1" style="stop-color:#80D0C7"/>
				</radialGradient>
				<path class="st36" d="M0.46,741.37c45.56-0.97,91.13-1.57,136.69-2.14c52.19-0.65,107.32,3.85,157.12-13.96
					c60.59-21.67,112.2-62.57,172.78-84.27c74.03-26.51,148.9,1.03,220.33,24.11c80.46,26.01,165.41,64.66,250.77,69.99
					c56.47,3.52,113.22-11.21,167.34-25.51c55.94-14.78,112.14-31.51,170.24-34.71c54.12-2.98,102.12,9.15,150.83,32.12
					c56.98,26.86,108.3,51.67,172.65,52.7c107.78,1.71,214.2,23.77,322,24.56"/>
			</g>
			<g>
				<radialGradient id="SVGID_37_" cx="960.8648" cy="703.9378" r="681.3243" gradientUnits="userSpaceOnUse">
					<stop  offset="0" style="stop-color:#0093E9"/>
					<stop  offset="1" style="stop-color:#80D0C7"/>
				</radialGradient>
				<path class="st37" d="M0.51,731.67c46.1-0.77,92.11-0.09,138.2,0.72c52.41,0.92,107.85,5.35,157.97-12.29
					c60.67-21.36,112.55-61.79,173.21-83.17c73.87-26.04,148.22,0.94,219.48,23.92c79.92,25.77,164.31,64.09,249.09,69.26
					c56.69,3.46,113.6-11.77,167.8-26.51c56.09-15.25,112.48-32.54,170.85-35.94c55.12-3.21,104.1,10,153.65,33.33
					c58.23,27.42,111.11,53.43,176.85,54.66c105.04,1.96,208.53,24.98,313.6,25.96"/>
			</g>
			<g>
				<radialGradient id="SVGID_38_" cx="960.8909" cy="701.215" r="681.3447" gradientUnits="userSpaceOnUse">
					<stop  offset="0" style="stop-color:#0093E9"/>
					<stop  offset="1" style="stop-color:#80D0C7"/>
				</radialGradient>
				<path class="st38" d="M0.56,722.24c46.73-0.54,93.12,1.47,139.76,3.69c52.63,2.5,108.38,6.94,158.87-10.54
					c60.75-21.03,112.92-60.99,173.66-82.04c73.69-25.54,147.52,0.86,218.59,23.71c79.36,25.52,163.17,63.5,247.35,68.51
					c56.92,3.39,114-12.37,168.28-27.55c56.26-15.73,112.83-33.6,171.5-37.22c56.14-3.47,106.2,10.89,156.59,34.6
					c59.53,28.01,114.04,55.24,181.23,56.7c102.2,2.22,202.61,26.24,304.84,27.43"/>
			</g>
			<g>
				<radialGradient id="SVGID_39_" cx="960.917" cy="698.9921" r="681.366" gradientUnits="userSpaceOnUse">
					<stop  offset="0" style="stop-color:#0093E9"/>
					<stop  offset="1" style="stop-color:#80D0C7"/>
				</radialGradient>
				<path class="st39" d="M0.61,713.1c47.43-0.28,94.15,3.1,141.37,6.75c52.85,4.09,108.91,8.59,159.79-8.72
					c60.83-20.69,113.29-60.16,174.11-80.88c73.51-25.04,146.79,0.77,217.67,23.5c78.79,25.27,161.99,62.9,245.55,67.74
					c57.15,3.31,114.42-12.99,168.78-28.62c56.43-16.22,113.19-34.68,172.16-38.54c57.18-3.75,108.38,11.82,159.64,35.91
					c60.87,28.62,117.06,57.08,185.73,58.8c99.27,2.49,196.49,27.52,295.8,28.94"/>
			</g>
			<g>
				<radialGradient id="SVGID_40_" cx="960.9426" cy="697.2289" r="681.3882" gradientUnits="userSpaceOnUse">
					<stop  offset="0" style="stop-color:#0093E9"/>
					<stop  offset="1" style="stop-color:#80D0C7"/>
				</radialGradient>
				<path class="st40" d="M0.66,704.27c48.2-0.01,95.2,4.78,143.02,9.88c53.08,5.65,109.41,10.3,160.74-6.85
					c60.92-20.35,113.67-59.33,174.58-79.7c73.31-24.52,146.06,0.69,216.73,23.29c78.2,25.01,160.79,62.29,243.72,66.95
					c57.39,3.22,114.85-13.64,169.29-29.72c56.6-16.72,113.56-35.77,172.83-39.89c58.23-4.04,110.64,12.77,162.76,37.25
					c62.24,29.23,120.14,58.94,190.33,60.94c96.29,2.76,190.24,28.84,286.57,30.49"/>
			</g>
			<g>
				<radialGradient id="SVGID_41_" cx="960.9645" cy="695.8851" r="681.4132" gradientUnits="userSpaceOnUse">
					<stop  offset="0" style="stop-color:#0093E9"/>
					<stop  offset="1" style="stop-color:#80D0C7"/>
				</radialGradient>
				<path class="st41" d="M0.7,695.78c49.02,0.28,96.26,6.49,144.68,13.03c53.3,7.2,109.89,12.03,161.71-4.96
					c61.01-20,114.06-58.48,175.05-78.5c73.1-24,145.32,0.61,215.77,23.08c77.6,24.74,159.58,61.67,241.87,66.15
					c57.63,3.14,115.28-14.29,169.8-30.84c56.77-17.23,113.93-36.88,173.51-41.24c59.27-4.34,112.93,13.74,165.92,38.61
					c63.63,29.86,123.24,60.8,194.97,63.11c93.28,3.01,183.9,30.18,277.24,32.05"/>
			</g>
			<g>
				<radialGradient id="SVGID_42_" cx="960.9852" cy="694.9204" r="681.4386" gradientUnits="userSpaceOnUse">
					<stop  offset="0" style="stop-color:#0093E9"/>
					<stop  offset="1" style="stop-color:#80D0C7"/>
				</radialGradient>
				<path class="st42" d="M0.75,687.65c101.06,1.18,209.81,45.04,309.02,13.13c61.09-19.65,114.44-57.63,175.52-77.31
					c72.88-23.48,144.58,0.54,214.81,22.87c77,24.48,158.37,61.06,240.02,65.35c57.87,3.04,115.72-14.96,170.31-31.95
					c56.94-17.73,114.3-37.98,174.19-42.61c60.3-4.65,115.25,14.72,169.09,39.97c65.03,30.5,126.36,62.65,199.63,65.29
					c90.29,3.25,177.53,31.52,267.88,33.62"/>
			</g>
			<g>
				<radialGradient id="SVGID_43_" cx="961.0046" cy="694.2946" r="681.4643" gradientUnits="userSpaceOnUse">
					<stop  offset="0" style="stop-color:#0093E9"/>
					<stop  offset="1" style="stop-color:#80D0C7"/>
				</radialGradient>
				<path class="st43" d="M0.8,679.91c102.74,1.8,210.15,50.18,311.63,18.16c61.18-19.31,114.82-56.79,175.99-76.12
					c72.66-22.96,143.86,0.46,213.86,22.65c76.41,24.22,157.16,60.44,238.17,64.56c58.11,2.95,116.15-15.62,170.82-33.06
					c57.12-18.23,114.67-39.08,174.86-43.96c61.31-4.97,117.56,15.69,172.23,41.31c66.42,31.13,129.45,64.47,204.25,67.45
					c87.33,3.47,171.18,32.87,258.59,35.18"/>
			</g>
			<g>
				<radialGradient id="SVGID_44_" cx="961.0223" cy="693.9673" r="681.4899" gradientUnits="userSpaceOnUse">
					<stop  offset="0" style="stop-color:#0093E9"/>
					<stop  offset="1" style="stop-color:#80D0C7"/>
				</radialGradient>
				<path class="st44" d="M0.84,672.58c104.41,2.4,210.45,55.22,314.2,23.1c61.27-18.97,115.19-55.95,176.45-74.94
					c72.45-22.46,143.14,0.39,212.93,22.44c75.83,23.96,155.97,59.83,236.36,63.77c58.35,2.87,116.58-16.26,171.32-34.15
					c57.28-18.72,115.03-40.17,175.53-45.29c62.29-5.28,119.84,16.66,175.32,42.64c67.8,31.75,132.5,66.26,208.81,69.58
					c84.44,3.67,164.92,34.21,249.45,36.71"/>
			</g>
			<g>
				<radialGradient id="SVGID_45_" cx="961.038" cy="693.8985" r="681.515" gradientUnits="userSpaceOnUse">
					<stop  offset="0" style="stop-color:#0093E9"/>
					<stop  offset="1" style="stop-color:#80D0C7"/>
				</radialGradient>
				<path class="st45" d="M0.88,665.69c106.05,2.99,210.73,60.11,316.7,27.91c61.36-18.64,115.56-55.13,176.9-73.8
					c72.23-21.97,142.45,0.32,212.02,22.24c75.26,23.71,154.81,59.22,234.58,63.01c58.59,2.78,117-16.89,171.81-35.21
					c57.44-19.19,115.38-41.23,176.18-46.59c63.23-5.58,122.06,17.6,178.32,43.93c69.14,32.36,135.47,68,213.25,71.65
					c81.65,3.83,158.78,35.54,240.53,38.21"/>
			</g>
			<g>
				<radialGradient id="SVGID_46_" cx="961.0516" cy="694.0479" r="681.5394" gradientUnits="userSpaceOnUse">
					<stop  offset="0" style="stop-color:#0093E9"/>
					<stop  offset="1" style="stop-color:#80D0C7"/>
				</radialGradient>
				<path class="st46" d="M0.92,659.26c107.65,3.53,210.96,64.8,319.12,32.55c61.44-18.32,115.91-54.33,177.34-72.68
					c72.02-21.51,141.79,0.25,211.15,22.04c74.72,23.47,153.68,58.63,232.87,62.27c58.82,2.71,117.4-17.5,172.29-36.23
					c57.6-19.66,115.72-42.26,176.81-47.85c64.13-5.87,124.21,18.52,181.21,45.18c70.45,32.95,138.34,69.67,217.55,73.65
					c78.99,3.97,152.84,36.83,231.94,39.64"/>
			</g>
			<g>
				<radialGradient id="SVGID_47_" cx="961.0627" cy="694.3754" r="681.5627" gradientUnits="userSpaceOnUse">
					<stop  offset="0" style="stop-color:#0093E9"/>
					<stop  offset="1" style="stop-color:#80D0C7"/>
				</radialGradient>
				<path class="st47" d="M0.95,653.32c109.2,4.02,211.14,69.26,321.41,36.95c61.52-18.02,116.26-53.56,177.77-71.61
					c71.82-21.07,141.16,0.18,210.32,21.84c74.2,23.24,152.6,58.05,231.23,61.56c59.05,2.64,117.79-18.07,172.74-37.2
					c57.74-20.1,116.05-43.26,177.41-49.06c64.98-6.14,126.25,19.39,183.95,46.36c71.7,33.52,141.08,71.28,221.66,75.56
					c76.48,4.07,147.14,38.09,223.74,41.02"/>
			</g>
			<g>
				<radialGradient id="SVGID_48_" cx="961.0709" cy="694.8185" r="681.5859" gradientUnits="userSpaceOnUse">
					<stop  offset="0" style="stop-color:#0093E9"/>
					<stop  offset="1" style="stop-color:#80D0C7"/>
				</radialGradient>
				<path class="st48" d="M0.98,647.9c112.31,4.49,213.12,74.08,327.07,40c60.94-18.22,115.59-52.96,176.92-70.09
					c71.4-19.94,140.36,1.29,208.95,22.75c73.31,22.95,150.55,57.11,228.23,60.48c58.77,2.55,117.49-18.51,172.01-37.86
					c57.5-20.4,115.71-44.15,176.91-50.39c67.58-6.88,131.29,20.44,191.17,48.57c72.59,34.11,142.7,71.61,224.26,76.17
					c73.67,4.12,140.82,39.28,214.66,42.25"/>
			</g>
			<g>
				<radialGradient id="SVGID_49_" cx="961.0761" cy="694.8835" r="681.6376" gradientUnits="userSpaceOnUse">
					<stop  offset="0" style="stop-color:#0093E9"/>
					<stop  offset="1" style="stop-color:#80D0C7"/>
				</radialGradient>
				<path class="st49" d="M1,643.01c113.75,4.82,213.13,77.96,329.07,43.83c61.02-17.96,115.9-52.26,177.3-69.14
					c71.22-19.57,139.8,1.21,208.22,22.56c72.91,22.76,149.57,56.47,226.79,59.86c58.94,2.59,117.87-19,172.41-38.68
					c57.62-20.79,115.99-45.06,177.45-51.46c68.32-7.11,133.08,21.22,193.57,49.63c73.67,34.59,145.07,73.02,227.81,77.82
					c71.55,4.16,135.78,40.43,207.53,43.44"/>
			</g>
			<g>
				<radialGradient id="SVGID_50_" cx="961.0779" cy="694.1946" r="681.7399" gradientUnits="userSpaceOnUse">
					<stop  offset="0" style="stop-color:#0093E9"/>
					<stop  offset="1" style="stop-color:#80D0C7"/>
				</radialGradient>
				<path class="st50" d="M1.02,638.69c56.43,2.47,104.55,20.17,157.26,38.2c56.64,19.37,115.48,25.96,173.61,9.09
					c61.08-17.72,116.19-51.61,177.65-68.25c71.06-19.25,139.29,1.13,207.56,22.38c72.51,22.57,148.69,55.97,225.48,59.29
					c59.13,2.56,118.17-19.41,172.77-39.42c57.73-21.16,116.25-45.9,177.94-52.44c69-7.31,134.69,21.93,195.73,50.58
					c74.64,35.04,147.24,74.33,231.06,79.32c69.68,4.15,131.16,41.51,201.05,44.52"/>
			</g>
			<g>
				<radialGradient id="SVGID_51_" cx="961.0761" cy="693.6684" r="681.8321" gradientUnits="userSpaceOnUse">
					<stop  offset="0" style="stop-color:#0093E9"/>
					<stop  offset="1" style="stop-color:#80D0C7"/>
				</radialGradient>
				<path class="st51" d="M1.04,634.95c57.11,2.51,105.27,21.24,158.3,40.18c56.76,20.27,115.6,26.93,174.16,10.16
					c61.14-17.51,116.46-51,177.96-67.45c70.93-18.97,138.83,1.05,206.99,22.22c72.16,22.41,147.9,55.5,224.3,58.78
					c59.32,2.55,118.44-19.76,173.09-40.07c57.82-21.49,116.48-46.69,178.38-53.32c69.6-7.46,136.08,22.56,197.61,51.43
					c75.51,35.43,149.19,75.54,233.96,80.66c68.07,4.11,127.01,42.51,195.31,45.47"/>
			</g>
			<g>
				<radialGradient id="SVGID_52_" cx="961.0704" cy="693.2813" r="681.9121" gradientUnits="userSpaceOnUse">
					<stop  offset="0" style="stop-color:#0093E9"/>
					<stop  offset="1" style="stop-color:#80D0C7"/>
				</radialGradient>
				<path class="st52" d="M1.05,631.84c57.73,2.48,105.89,22.14,159.2,41.89c56.86,21.07,115.68,27.71,174.6,11.03
					c61.2-17.33,116.7-50.45,178.25-66.73c70.82-18.73,138.45,0.97,206.51,22.07c71.86,22.27,147.21,55.06,223.27,58.34
					c59.48,2.57,118.67-20.03,173.37-40.61c57.9-21.78,116.68-47.4,178.77-54.09c70.12-7.56,137.22,23.09,199.19,52.15
					c76.24,35.76,150.89,76.64,236.48,81.8c66.74,4.03,123.39,43.4,190.4,46.29"/>
			</g>
			<g>
				<radialGradient id="SVGID_53_" cx="961.0605" cy="693.0096" r="681.9778" gradientUnits="userSpaceOnUse">
					<stop  offset="0" style="stop-color:#0093E9"/>
					<stop  offset="1" style="stop-color:#80D0C7"/>
				</radialGradient>
				<path class="st53" d="M1.05,629.36c58.28,2.37,106.41,22.86,159.95,43.32c56.93,21.75,115.72,28.29,174.94,11.68
					c61.24-17.18,116.91-49.96,178.49-66.1c70.74-18.54,138.13,0.9,206.13,21.93c71.62,22.15,146.62,54.66,222.41,57.97
					c59.64,2.61,118.85-20.21,173.61-41.04c57.96-22.04,116.85-48.04,179.09-54.75c70.55-7.61,138.09,23.52,200.42,52.74
					c76.84,36.02,152.31,77.62,238.59,82.75c65.72,3.9,120.38,44.19,186.4,46.96"/>
			</g>
			<g>
				<radialGradient id="SVGID_54_" cx="961.0461" cy="692.83" r="682.027" gradientUnits="userSpaceOnUse">
					<stop  offset="0" style="stop-color:#0093E9"/>
					<stop  offset="1" style="stop-color:#80D0C7"/>
				</radialGradient>
				<path class="st54" d="M1.04,627.54c58.74,2.16,106.81,23.38,160.53,44.42c56.98,22.32,115.72,28.65,175.16,12.09
					c61.27-17.07,117.09-49.54,178.7-65.59c70.7-18.41,137.89,0.83,205.87,21.82c71.45,22.06,146.15,54.3,221.73,57.68
					c59.77,2.67,118.98-20.3,173.79-41.34c57.99-22.26,116.97-48.59,179.35-55.27c70.88-7.59,138.66,23.83,201.27,53.18
					c77.27,36.22,153.44,78.48,240.23,83.47c65.02,3.73,118.04,44.85,183.39,47.45"/>
			</g>
			<g>
				<radialGradient id="SVGID_55_" cx="961.027" cy="692.7186" r="682.0578" gradientUnits="userSpaceOnUse">
					<stop  offset="0" style="stop-color:#0093E9"/>
					<stop  offset="1" style="stop-color:#80D0C7"/>
				</radialGradient>
				<path class="st55" d="M1.02,626.41c59.12,1.85,107.09,23.68,160.93,45.18c57,22.76,115.66,28.77,175.24,12.25
					c61.29-17,117.24-49.2,178.85-65.18c70.69-18.34,137.73,0.75,205.72,21.72c71.35,22,145.81,53.98,221.25,57.47
					c59.89,2.77,119.06-20.29,173.91-41.5c58-22.42,117.06-49.05,179.54-55.65c71.12-7.51,138.91,24.02,201.72,53.46
					c77.53,36.33,154.24,79.21,241.38,83.94c64.67,3.51,116.43,45.38,181.45,47.77"/>
			</g>
			<g>
				<radialGradient id="SVGID_56_" cx="961.0029" cy="692.652" r="682.0685" gradientUnits="userSpaceOnUse">
					<stop  offset="0" style="stop-color:#0093E9"/>
					<stop  offset="1" style="stop-color:#80D0C7"/>
				</radialGradient>
				<path class="st56" d="M1,626c59.4,1.42,107.22,23.73,161.13,45.56c56.99,23.07,115.56,28.62,175.18,12.12
					c61.29-16.97,117.35-48.93,178.96-64.9c70.73-18.34,137.66,0.68,205.71,21.64c71.28,21.95,145.63,53.81,220.98,57.35
					c60.02,2.82,119.04-20.16,173.98-41.51c57.99-22.54,117.1-49.41,179.65-55.87c71.24-7.35,138.8,24.08,201.74,53.57
					c77.61,36.37,154.7,79.78,241.98,84.16c64.68,3.24,115.63,45.76,180.68,47.89"/>
			</g>
		</g>
	</g>
	<g>
		<g>
			<g>
				<g>
					
						<radialGradient id="SVGID_57_" cx="961.1263" cy="492.9676" r="678.8226" gradientTransform="matrix(-1 0 0 -1 1921.519 463.7967)" gradientUnits="userSpaceOnUse">
						<stop  offset="0" style="stop-color:#0093E9"/>
						<stop  offset="1" style="stop-color:#80D0C7"/>
					</radialGradient>
					<path class="st57" d="M1920.39-29.2c-486.15,0.07-972.25,0.08-1458.4,0.01C308.12-29.21,154.26-29.2,0.39-29.2"/>
				</g>
				<g>
					
						<radialGradient id="SVGID_58_" cx="961.1108" cy="471.4581" r="678.8383" gradientTransform="matrix(-1 0 0 -1 1921.519 463.7967)" gradientUnits="userSpaceOnUse">
						<stop  offset="0" style="stop-color:#0093E9"/>
						<stop  offset="1" style="stop-color:#80D0C7"/>
					</radialGradient>
					<path class="st58" d="M1920.42-8.97c-127.96,0.54-255.93-2.07-383.88-0.73c-132.36,1.38-265.03,8.29-397.37,3
						C912.9-15.75,686.09-5.85,459.66-8.19C306.58-9.77,153.49-9.28,0.39-9.24"/>
				</g>
				<g>
					
						<radialGradient id="SVGID_59_" cx="961.0728" cy="449.7146" r="678.8755" gradientTransform="matrix(-1 0 0 -1 1921.519 463.7967)" gradientUnits="userSpaceOnUse">
						<stop  offset="0" style="stop-color:#0093E9"/>
						<stop  offset="1" style="stop-color:#80D0C7"/>
					</radialGradient>
					<path class="st59" d="M1920.5,11.57c-130.05,0.64-260.19-5.31-390.22-2.09c-132.86,3.29-266.66,16.72-399.48,6.21
						C905.86-2.1,679.78,20.42,454.29,14.08C303,9.83,151.74,10.55,0.39,10.59"/>
				</g>
				<g>
					
						<radialGradient id="SVGID_60_" cx="961.018" cy="427.9505" r="678.9376" gradientTransform="matrix(-1 0 0 -1 1921.519 463.7967)" gradientUnits="userSpaceOnUse">
						<stop  offset="0" style="stop-color:#0093E9"/>
						<stop  offset="1" style="stop-color:#80D0C7"/>
					</radialGradient>
					<path class="st60" d="M1920.61,32.25c-133.08,0.42-266.43-9.85-399.46-3.75c-133.86,6.15-268.98,26.9-402.82,10.41
						c-46.41-5.72-92.25-12.25-139.13-12.36C919.85,26.41,860.74,29,801.5,32.71c-118.56,7.42-236.14,10.83-354.86,4.5
						c-148.74-7.94-297.33-7-446.26-6.98"/>
				</g>
				<g>
					
						<radialGradient id="SVGID_61_" cx="960.9525" cy="406.3526" r="679.025" gradientTransform="matrix(-1 0 0 -1 1921.519 463.7967)" gradientUnits="userSpaceOnUse">
						<stop  offset="0" style="stop-color:#0093E9"/>
						<stop  offset="1" style="stop-color:#80D0C7"/>
					</radialGradient>
					<path class="st61" d="M1920.75,52.89c-136.65-0.03-274.09-15.39-410.6-5.61c-135.57,9.71-271.35,37.92-406.97,15.26
						c-49.19-8.22-97.8-18.06-147.86-18.71c-58.24-0.76-116.29,4.33-174.19,9.95c-115.3,11.19-227.98,16.96-343.62,6.99
						C291.84,48.22,146.52,49.63,0.38,49.62"/>
				</g>
				<g>
					
						<radialGradient id="SVGID_62_" cx="960.8805" cy="385.0256" r="679.1348" gradientTransform="matrix(-1 0 0 -1 1921.519 463.7967)" gradientUnits="userSpaceOnUse">
						<stop  offset="0" style="stop-color:#0093E9"/>
						<stop  offset="1" style="stop-color:#80D0C7"/>
					</radialGradient>
					<path class="st62" d="M1920.89,73.32c-140.38-0.6-282.57-21.52-422.64-7.57c-138.06,13.75-273.21,49.07-411.5,20.42
						c-52.08-10.79-103.77-24.21-157.24-25.53c-56.98-1.41-114.08,6.39-170.4,14.05C647.22,89.9,540.17,98.58,427.67,84.34
						C285.4,66.35,143.63,68.75,0.38,68.7"/>
				</g>
				<g>
					
						<radialGradient id="SVGID_63_" cx="960.8098" cy="362.9666" r="679.2791" gradientTransform="matrix(-1 0 0 -1 1921.519 463.7967)" gradientUnits="userSpaceOnUse">
						<stop  offset="0" style="stop-color:#0093E9"/>
						<stop  offset="1" style="stop-color:#80D0C7"/>
					</radialGradient>
					<path class="st63" d="M1921.04,93.36c-143.91-1.17-291.25-27.8-434.6-9.52c-77.34,9.86-153.55,27.05-230.88,36.93
						c-64.1,8.18-122.45,3.78-185.12-11.37c-54.88-13.27-109.73-30.29-166.56-32.31c-55.74-1.98-111.99,8.42-166.64,18.12
						c-56.35,10-112.76,21.07-170.04,23.94c-50.08,2.51-100.02-3.07-149.29-11.63c-56.41-9.8-111.88-18.97-169.33-19.43
						C165.84,87.41,83.1,87.45,0.38,87.4"/>
				</g>
				<g>
					
						<radialGradient id="SVGID_64_" cx="960.7468" cy="342.1858" r="679.4191" gradientTransform="matrix(-1 0 0 -1 1921.519 463.7967)" gradientUnits="userSpaceOnUse">
						<stop  offset="0" style="stop-color:#0093E9"/>
						<stop  offset="1" style="stop-color:#80D0C7"/>
					</radialGradient>
					<path class="st64" d="M1921.17,112.85c-77.79-0.86-155.31-7.2-232.9-12.28c-71.04-4.65-141.88-9.89-212.58,0.92
						c-77.28,11.82-153.01,32.02-230.29,43.85c-66.42,10.17-125.15,3.95-189.76-13.54c-57.38-15.53-115.21-35.89-175.11-38.53
						c-54.67-2.41-110.13,10.22-163.21,21.83c-54.71,11.97-109.49,25.13-165.55,28.72c-48.07,3.08-95.99-3.4-142.81-13.97
						c-53.21-12.01-104.88-22.75-159.75-23.37c-82.93-0.93-165.9-0.75-248.83-0.82"/>
				</g>
				<g>
					
						<radialGradient id="SVGID_65_" cx="960.6978" cy="322.3268" r="679.5454" gradientTransform="matrix(-1 0 0 -1 1921.519 463.7967)" gradientUnits="userSpaceOnUse">
						<stop  offset="0" style="stop-color:#0093E9"/>
						<stop  offset="1" style="stop-color:#80D0C7"/>
					</radialGradient>
					<path class="st65" d="M1921.27,131.6c-79.81-0.99-159.3-8.23-238.86-13.97c-71.99-5.2-143.89-11.42-215.43,1
						c-77.26,13.41-152.53,36.29-229.79,49.71c-68.2,11.85-127.37,3.96-193.41-15.34c-59.42-17.37-119.72-40.62-182.17-43.66
						c-53.95-2.63-108.58,11.54-160.41,24.83c-53.32,13.67-106.7,28.66-161.83,32.69c-46.61,3.4-92.87-3.48-137.72-15.9
						c-50.67-14.04-98.88-25.92-151.91-26.59c-83.1-1.05-166.27-0.86-249.37-0.93"/>
				</g>
				<g>
					
						<radialGradient id="SVGID_66_" cx="960.6691" cy="303.6741" r="679.6362" gradientTransform="matrix(-1 0 0 -1 1921.519 463.7967)" gradientUnits="userSpaceOnUse">
						<stop  offset="0" style="stop-color:#0093E9"/>
						<stop  offset="1" style="stop-color:#80D0C7"/>
					</radialGradient>
					<path class="st66" d="M1921.34,149.44c-81.17-0.91-162.01-8.89-242.89-15.12c-72.44-5.58-145.22-12.58-217.14,0.86
						c-77.28,14.44-152.14,39.54-229.42,54c-69.17,12.94-128.88,3.88-195.63-16.63c-60.8-18.68-122.8-44.08-187.03-47.2
						c-53.68-2.61-107.43,12.15-158.55,26.79c-98.85,28.31-193.04,50.77-293.93,18.23c-49.02-15.81-94.54-28.15-146.64-28.75
						c-83.23-0.96-166.51-0.93-249.75-1"/>
				</g>
				<g>
					
						<radialGradient id="SVGID_67_" cx="960.6661" cy="286.5251" r="679.6695" gradientTransform="matrix(-1 0 0 -1 1921.519 463.7967)" gradientUnits="userSpaceOnUse">
						<stop  offset="0" style="stop-color:#0093E9"/>
						<stop  offset="1" style="stop-color:#80D0C7"/>
					</radialGradient>
					<path class="st67" d="M1921.35,166.18c-81.62-0.73-162.9-9.07-244.21-15.49c-72.33-5.71-145.75-13.24-217.57,0.44
						c-77.3,14.73-151.79,41.37-229.09,56.12c-69.2,13.2-129.43,3.75-196.06-17.2c-61.32-19.28-124.01-45.83-189.01-48.6
						c-53.88-2.29-106.81,11.95-157.91,27.4c-97.28,29.41-192.96,53.55-292.44,18.85c-48.56-16.94-92.67-29.11-144.78-29.51
						c-83.31-0.63-166.64-1-249.95-1.01"/>
				</g>
				<g>
					
						<radialGradient id="SVGID_68_" cx="960.6729" cy="270.9816" r="679.6827" gradientTransform="matrix(-1 0 0 -1 1921.519 463.7967)" gradientUnits="userSpaceOnUse">
						<stop  offset="0" style="stop-color:#0093E9"/>
						<stop  offset="1" style="stop-color:#80D0C7"/>
					</radialGradient>
					<path class="st68" d="M1921.34,180.34c-80.77-1.19-161.21-8.74-241.72-14.77c-72.1-5.39-145.79-13.37-217.33,0.44
						c-76.79,14.83-150.53,42.31-227.32,57.16c-69.33,13.41-129.93,3.56-196.64-17.46c-61.75-19.46-125.17-46.64-190.67-49.19
						c-53.83-2.09-106.75,12.07-157.86,27.35c-97.23,29.08-193.34,53.64-292.64,18.58c-48.57-17.15-92.55-29.48-144.76-29.75
						c-84.02-0.44-168.05-1.51-252.07-1.29"/>
				</g>
				<g>
					
						<radialGradient id="SVGID_69_" cx="960.6806" cy="256.7382" r="679.7065" gradientTransform="matrix(-1 0 0 -1 1921.519 463.7967)" gradientUnits="userSpaceOnUse">
						<stop  offset="0" style="stop-color:#0093E9"/>
						<stop  offset="1" style="stop-color:#80D0C7"/>
					</radialGradient>
					<path class="st69" d="M1921.33,191.47c-79.06-1.37-157.85-7.93-236.71-13.31c-71.28-4.86-144.54-12.98-215.17,1.11
						c-75.95,15.16-148.56,43.65-224.5,58.83c-69.7,13.93-130.82,3.32-197.85-17.86c-62.66-19.8-127.32-47.82-193.83-50.32
						c-53.84-2.02-106.86,12.04-158.04,27.11c-97.3,28.64-193.96,53.53-293.09,17.9c-48.62-17.48-92.48-30.04-144.88-30.27
						c-85.64-0.38-171.29-2.26-256.93-1.95"/>
				</g>
				<g>
					
						<radialGradient id="SVGID_70_" cx="960.689" cy="243.6404" r="679.7402" gradientTransform="matrix(-1 0 0 -1 1921.519 463.7967)" gradientUnits="userSpaceOnUse">
						<stop  offset="0" style="stop-color:#0093E9"/>
						<stop  offset="1" style="stop-color:#80D0C7"/>
					</radialGradient>
					<path class="st70" d="M1921.33,199.98c-76.65-1.32-153.1-6.72-229.6-11.24c-69.97-4.14-142.23-12.14-211.4,2.35
						c-74.84,15.68-145.97,45.32-220.81,61.02c-70.25,14.73-132.06,3.04-199.6-18.38c-63.99-20.29-130.29-49.3-198.23-51.9
						c-53.89-2.05-107.1,11.89-158.43,26.7c-97.47,28.11-194.78,53.25-293.75,16.87c-48.69-17.9-92.46-30.77-145.1-31.02
						c-88.03-0.42-176.05-3.22-264.08-2.92"/>
				</g>
				<g>
					
						<radialGradient id="SVGID_71_" cx="960.6979" cy="231.5345" r="679.7829" gradientTransform="matrix(-1 0 0 -1 1921.519 463.7967)" gradientUnits="userSpaceOnUse">
						<stop  offset="0" style="stop-color:#0093E9"/>
						<stop  offset="1" style="stop-color:#80D0C7"/>
					</radialGradient>
					<path class="st71" d="M1921.32,206.32c-73.67-1.11-147.21-5.19-220.79-8.68c-68.27-3.24-139.06-10.93-206.34,4.03
						c-73.5,16.34-142.9,47.27-216.4,63.63c-70.91,15.79-133.6,2.71-201.78-19c-65.65-20.9-133.91-51.03-203.64-53.83
						c-53.98-2.17-107.46,11.65-158.97,26.15c-97.72,27.51-195.75,52.84-294.58,15.58c-48.8-18.4-92.47-31.64-145.41-31.96
						c-91.04-0.56-182.05-4.33-273.09-4.14"/>
				</g>
				<g>
					
						<radialGradient id="SVGID_72_" cx="960.7072" cy="220.3824" r="679.8372" gradientTransform="matrix(-1 0 0 -1 1921.519 463.7967)" gradientUnits="userSpaceOnUse">
						<stop  offset="0" style="stop-color:#0093E9"/>
						<stop  offset="1" style="stop-color:#80D0C7"/>
					</radialGradient>
					<path class="st72" d="M1921.31,210.93c-70.26-0.8-140.46-3.44-210.68-5.74c-66.26-2.17-135.23-9.41-200.28,6.06
						c-72.01,17.13-139.45,49.41-211.45,66.56c-71.63,17.06-135.41,2.34-204.29-19.68c-67.57-21.6-138.04-52.92-209.81-56.04
						c-54.1-2.35-107.9,11.33-159.64,25.51c-98.03,26.86-196.85,52.32-295.55,14.07c-48.91-18.95-92.51-32.61-145.79-33.04
						c-94.52-0.78-188.98-5.56-283.5-5.56"/>
				</g>
				<g>
					
						<radialGradient id="SVGID_73_" cx="960.7181" cy="211.5834" r="679.955" gradientTransform="matrix(-1 0 0 -1 1921.519 463.7967)" gradientUnits="userSpaceOnUse">
						<stop  offset="0" style="stop-color:#0093E9"/>
						<stop  offset="1" style="stop-color:#80D0C7"/>
					</radialGradient>
					<path class="st73" d="M1921.3,214.22c-66.57-0.42-133.13-1.54-199.69-2.55c-64.06-0.97-130.94-7.67-193.56,8.32
						c-70.41,17.99-135.73,51.7-206.13,69.71c-72.34,18.51-137.43,1.92-207.02-20.42c-69.67-22.37-142.51-54.94-216.51-58.43
						c-54.24-2.56-108.4,10.96-160.39,24.79c-98.38,26.17-198.03,51.71-296.61,12.42c-49.04-19.55-92.57-33.65-146.22-34.22
						c-98.32-1.05-196.55-6.85-294.87-7.1"/>
				</g>
				<g>
					
						<radialGradient id="SVGID_74_" cx="960.7294" cy="204.1718" r="680.1172" gradientTransform="matrix(-1 0 0 -1 1921.519 463.7967)" gradientUnits="userSpaceOnUse">
						<stop  offset="0" style="stop-color:#0093E9"/>
						<stop  offset="1" style="stop-color:#80D0C7"/>
					</radialGradient>
					<path class="st74" d="M1921.29,216.64c-62.74-0.02-125.48,0.42-188.23,0.79c-61.75,0.36-126.39-5.79-186.47,10.72
						c-68.77,18.9-131.86,54.06-200.61,72.98c-73,20.09-139.61,1.46-209.87-21.18c-71.87-23.16-147.15-57.01-223.48-60.93
						c-54.39-2.79-108.93,10.57-161.19,24.04c-98.77,25.46-199.25,51.06-297.71,10.69c-49.17-20.16-92.64-34.73-146.67-35.45
						c-102.29-1.37-204.46-8.18-306.77-8.72"/>
				</g>
				<g>
					
						<radialGradient id="SVGID_75_" cx="960.738" cy="197.1603" r="680.2985" gradientTransform="matrix(-1 0 0 -1 1921.519 463.7967)" gradientUnits="userSpaceOnUse">
						<stop  offset="0" style="stop-color:#0093E9"/>
						<stop  offset="1" style="stop-color:#80D0C7"/>
					</radialGradient>
					<path class="st75" d="M1921.28,218.61c-58.93,0.35-117.79,2.35-176.69,4.14c-59.44,1.81-121.78-3.86-179.33,13.13
						c-67.13,19.81-127.95,56.42-195.07,76.26c-73.56,21.74-141.89,0.97-212.74-21.95c-74.08-23.97-151.82-59.08-230.5-63.44
						c-54.55-3.03-109.46,10.16-161.99,23.28c-99.15,24.76-200.47,50.4-298.82,8.96c-49.3-20.77-92.71-35.82-147.13-36.69
						c-106.3-1.7-212.42-9.51-318.73-10.34"/>
				</g>
				<g>
					
						<radialGradient id="SVGID_76_" cx="960.7463" cy="190.3013" r="680.4897" gradientTransform="matrix(-1 0 0 -1 1921.519 463.7967)" gradientUnits="userSpaceOnUse">
						<stop  offset="0" style="stop-color:#0093E9"/>
						<stop  offset="1" style="stop-color:#80D0C7"/>
					</radialGradient>
					<path class="st76" d="M1921.27,220.58c-55.29,0.66-110.32,4.16-165.5,7.39c-57.22,3.35-117.29-1.97-172.44,15.45
						c-65.55,20.7-124.13,58.74-189.66,79.46c-74.01,23.4-144.19,0.46-215.52-22.69c-76.24-24.75-156.36-61.09-237.32-65.88
						c-54.71-3.24-109.97,9.78-162.77,22.55c-99.53,24.08-201.66,49.75-299.9,7.27c-49.42-21.37-92.77-36.88-147.56-37.89
						c-110.17-2.03-220.14-10.8-330.33-11.92"/>
				</g>
				<g>
					
						<radialGradient id="SVGID_77_" cx="960.7547" cy="183.3485" r="680.6813" gradientTransform="matrix(-1 0 0 -1 1921.519 463.7967)" gradientUnits="userSpaceOnUse">
						<stop  offset="0" style="stop-color:#0093E9"/>
						<stop  offset="1" style="stop-color:#80D0C7"/>
					</radialGradient>
					<path class="st77" d="M1921.26,222.97c-51.97,0.89-103.34,5.76-155.05,10.43c-55.18,4.98-113.12-0.23-166.13,17.57
						c-64.08,21.52-120.5,60.93-184.57,82.48c-74.33,24.99-146.42-0.06-218.11-23.4c-78.24-25.47-160.61-63-243.69-68.16
						c-54.85-3.41-110.43,9.44-163.47,21.88c-99.87,23.43-202.78,49.15-300.9,5.71c-49.52-21.92-92.81-37.89-147.96-39.01
						c-113.78-2.32-227.32-12.01-341.11-13.38"/>
				</g>
				<g>
					
						<radialGradient id="SVGID_78_" cx="960.7632" cy="176.0574" r="680.8618" gradientTransform="matrix(-1 0 0 -1 1921.519 463.7967)" gradientUnits="userSpaceOnUse">
						<stop  offset="0" style="stop-color:#0093E9"/>
						<stop  offset="1" style="stop-color:#80D0C7"/>
					</radialGradient>
					<path class="st78" d="M1921.25,226.22c-49.13,1.01-97.09,7.08-145.76,13.13c-53.43,6.65-109.48,1.24-160.7,19.38
						c-62.79,22.24-117.19,62.94-179.96,85.2c-74.52,26.43-148.48-0.56-220.41-24.04c-80.02-26.12-164.41-64.74-249.38-70.2
						c-54.97-3.53-110.81,9.16-164.06,21.3c-100.16,22.83-203.79,48.63-301.79,4.34c-49.61-22.43-92.83-38.8-148.3-40
						c-116.97-2.54-233.65-13.11-350.64-14.68"/>
				</g>
				<g>
					
						<radialGradient id="SVGID_79_" cx="960.772" cy="168.1839" r="681.0181" gradientTransform="matrix(-1 0 0 -1 1921.519 463.7967)" gradientUnits="userSpaceOnUse">
						<stop  offset="0" style="stop-color:#0093E9"/>
						<stop  offset="1" style="stop-color:#80D0C7"/>
					</radialGradient>
					<path class="st79" d="M1921.25,230.75c-46.93,1.01-91.85,8.01-138.03,15.38c-52.04,8.3-106.57,2.33-156.46,20.78
						c-61.7,22.81-114.32,64.71-176.01,87.55c-74.61,27.62-150.27-1.03-222.32-24.59c-81.48-26.65-167.61-66.27-254.15-71.9
						c-55.06-3.58-111.1,8.97-164.5,20.84c-100.38,22.31-204.65,48.24-302.51,3.21c-49.68-22.86-92.81-39.58-148.56-40.82
						c-119.59-2.66-238.86-14.08-358.47-15.74"/>
				</g>
				<g>
					
						<radialGradient id="SVGID_80_" cx="960.781" cy="159.4842" r="681.1363" gradientTransform="matrix(-1 0 0 -1 1921.519 463.7967)" gradientUnits="userSpaceOnUse">
						<stop  offset="0" style="stop-color:#0093E9"/>
						<stop  offset="1" style="stop-color:#80D0C7"/>
					</radialGradient>
					<path class="st80" d="M1921.24,237.01c-45.47,0.89-87.88,8.51-132.27,17.05c-51.11,9.83-104.62,2.93-153.73,21.65
						c-60.89,23.21-112,66.16-172.88,89.4c-74.62,28.48-151.67-1.43-223.72-25.04c-82.54-27.04-170.06-67.54-257.75-73.19
						c-55.09-3.55-111.26,8.89-164.76,20.53c-100.51,21.88-205.33,48-303.04,2.41c-49.72-23.2-92.75-40.2-148.71-41.42
						c-121.49-2.66-242.63-14.88-364.15-16.51"/>
				</g>
				<g>
					
						<radialGradient id="SVGID_81_" cx="960.7904" cy="149.7141" r="681.2028" gradientTransform="matrix(-1 0 0 -1 1921.519 463.7967)" gradientUnits="userSpaceOnUse">
						<stop  offset="0" style="stop-color:#0093E9"/>
						<stop  offset="1" style="stop-color:#80D0C7"/>
					</radialGradient>
					<path class="st81" d="M1921.23,245.42c-44.83,0.62-85.46,8.55-128.89,18.04c-50.76,11.09-103.88,2.93-152.81,21.88
						c-60.38,23.38-110.37,67.25-170.74,90.67c-74.57,28.92-152.56-1.75-224.53-25.35c-83.11-27.26-171.6-68.5-259.94-73.98
						c-55.08-3.41-111.26,8.94-164.79,20.42c-100.52,21.55-205.79,47.96-303.33,2c-49.73-23.44-92.64-40.63-148.74-41.76
						c-122.54-2.49-244.68-15.49-367.24-16.92"/>
				</g>
				<g>
					
						<radialGradient id="SVGID_82_" cx="960.7982" cy="139.0319" r="681.2125" gradientTransform="matrix(-1 0 0 -1 1921.519 463.7967)" gradientUnits="userSpaceOnUse">
						<stop  offset="0" style="stop-color:#0093E9"/>
						<stop  offset="1" style="stop-color:#80D0C7"/>
					</radialGradient>
					<path class="st82" d="M1921.22,256.04c-44.71,0.62-85.04,8.47-128.3,18.08c-50.82,11.29-104.04,2.84-153.06,21.85
						c-60.26,23.37-109.92,67.51-170.16,90.91c-74.56,28.96-152.75-1.81-224.68-25.41c-83.2-27.29-171.87-68.7-260.32-74.1
						c-55.08-3.37-111.21,8.94-164.74,20.43c-100.5,21.56-205.86,48.1-303.35,2.02c-49.82-23.55-92.7-40.95-148.95-41.9
						c-122.62-2.09-244.8-15.95-367.44-17.01"/>
				</g>
				<g>
					
						<radialGradient id="SVGID_83_" cx="960.8068" cy="129.0908" r="681.2141" gradientTransform="matrix(-1 0 0 -1 1921.519 463.7967)" gradientUnits="userSpaceOnUse">
						<stop  offset="0" style="stop-color:#0093E9"/>
						<stop  offset="1" style="stop-color:#80D0C7"/>
					</radialGradient>
					<path class="st83" d="M1921.2,266.96c-44.51,0.92-85.35,8.45-128.61,17.51c-50.84,10.64-104.14,2.91-153.07,21.85
						c-60.26,23.32-110.06,67.21-170.3,90.56c-74.6,28.92-152.61-1.73-224.61-25.33c-83.15-27.25-171.57-68.38-259.94-73.94
						c-55.17-3.47-111.26,8.87-164.84,20.52c-100.78,21.92-205.91,48.33-303.7,2.13c-50.13-23.68-93.23-41.48-149.85-42.27
						c-122.19-1.68-243.89-16.48-366.09-17.22"/>
				</g>
				<g>
					
						<radialGradient id="SVGID_84_" cx="960.8187" cy="120.0531" r="681.2182" gradientTransform="matrix(-1 0 0 -1 1921.519 463.7967)" gradientUnits="userSpaceOnUse">
						<stop  offset="0" style="stop-color:#0093E9"/>
						<stop  offset="1" style="stop-color:#80D0C7"/>
					</radialGradient>
					<path class="st84" d="M1921.18,277.85c-44.37,1.14-85.77,8.22-129.1,16.57c-50.91,9.81-104.34,2.74-153.21,21.58
						c-60.27,23.23-110.23,66.84-170.48,90.1c-74.61,28.81-152.38-1.64-224.41-25.22c-83.03-27.18-171.15-68.03-259.35-73.69
						c-55.27-3.54-111.36,8.89-164.99,20.75c-101.19,22.39-206.34,48.85-304.55,2.23c-50.51-23.97-94.19-42.22-151.27-42.88
						c-121.39-1.4-242.22-17.1-363.62-17.62"/>
				</g>
				<g>
					
						<radialGradient id="SVGID_85_" cx="960.8336" cy="111.8782" r="681.2247" gradientTransform="matrix(-1 0 0 -1 1921.519 463.7967)" gradientUnits="userSpaceOnUse">
						<stop  offset="0" style="stop-color:#0093E9"/>
						<stop  offset="1" style="stop-color:#80D0C7"/>
					</radialGradient>
					<path class="st85" d="M1921.16,288.68c-44.28,1.28-86.31,7.77-129.77,15.29c-51.03,8.83-104.6,2.34-153.48,21.07
						c-60.29,23.1-110.44,66.4-170.71,89.52c-74.6,28.63-152.07-1.56-224.09-25.1c-82.83-27.08-170.61-67.64-258.58-73.35
						c-55.4-3.6-111.51,9-165.2,21.12c-102.01,23.04-206.78,49.3-305.85,2.32c-51.11-24.24-95.42-43.15-153.18-43.73
						c-120.24-1.21-239.86-17.82-360.11-18.2"/>
				</g>
				<g>
					
						<radialGradient id="SVGID_86_" cx="960.8511" cy="104.5261" r="681.2334" gradientTransform="matrix(-1 0 0 -1 1921.519 463.7967)" gradientUnits="userSpaceOnUse">
						<stop  offset="0" style="stop-color:#0093E9"/>
						<stop  offset="1" style="stop-color:#80D0C7"/>
					</radialGradient>
					<path class="st86" d="M1921.13,299.42c-44.27,1.36-86.93,7.14-130.6,13.71c-51.18,7.7-104.94,1.73-153.86,20.33
						c-60.32,22.93-110.67,65.89-170.97,88.85c-74.56,28.39-151.69-1.47-223.67-24.97c-82.57-26.96-169.96-67.21-257.62-72.94
						c-55.54-3.63-111.71,9.2-165.46,21.61c-103.06,23.81-207.4,49.84-307.56,2.39c-51.84-24.56-96.96-44.25-155.54-44.8
						c-118.78-1.12-236.85-18.62-355.65-18.94"/>
				</g>
				<g>
					
						<radialGradient id="SVGID_87_" cx="960.8707" cy="97.9563" r="681.2442" gradientTransform="matrix(-1 0 0 -1 1921.519 463.7967)" gradientUnits="userSpaceOnUse">
						<stop  offset="0" style="stop-color:#0093E9"/>
						<stop  offset="1" style="stop-color:#80D0C7"/>
					</radialGradient>
					<path class="st87" d="M1921.1,310.04c-44.35,1.38-87.65,6.32-131.58,11.85c-51.35,6.46-105.34,0.93-154.34,19.39
						c-60.36,22.73-110.93,65.32-171.28,88.08c-74.49,28.1-151.24-1.38-223.16-24.82c-82.24-26.81-169.21-66.75-256.51-72.46
						c-55.7-3.64-111.94,9.47-165.76,22.21c-104.33,24.7-208.19,50.48-309.65,2.45c-52.68-24.94-98.77-45.49-158.3-46.06
						c-117.04-1.12-233.26-19.51-350.32-19.83"/>
				</g>
				<g>
					
						<radialGradient id="SVGID_88_" cx="960.8924" cy="92.1285" r="681.2569" gradientTransform="matrix(-1 0 0 -1 1921.519 463.7967)" gradientUnits="userSpaceOnUse">
						<stop  offset="0" style="stop-color:#0093E9"/>
						<stop  offset="1" style="stop-color:#80D0C7"/>
					</radialGradient>
					<path class="st88" d="M1921.06,320.54c-44.51,1.34-88.43,5.34-132.7,9.73c-51.55,5.11-105.79-0.05-154.92,18.26
						c-60.4,22.5-111.22,64.7-171.61,87.23c-74.41,27.76-150.73-1.29-222.56-24.66c-81.86-26.64-168.37-66.27-255.25-71.92
						c-55.87-3.63-112.21,9.82-166.1,22.92c-105.79,25.71-209.12,51.19-312.09,2.5c-53.63-25.36-100.84-46.88-161.44-47.5
						c-115.03-1.19-229.15-20.48-344.2-20.85"/>
				</g>
				<g>
					
						<radialGradient id="SVGID_89_" cx="960.9155" cy="87.0024" r="681.2714" gradientTransform="matrix(-1 0 0 -1 1921.519 463.7967)" gradientUnits="userSpaceOnUse">
						<stop  offset="0" style="stop-color:#0093E9"/>
						<stop  offset="1" style="stop-color:#80D0C7"/>
					</radialGradient>
					<path class="st89" d="M1921.02,330.87c-44.76,1.26-89.28,4.21-133.93,7.39c-51.75,3.68-106.27-1.18-155.58,16.96
						c-60.46,22.25-111.53,64.03-171.98,86.3c-74.3,27.38-150.16-1.2-221.88-24.49c-81.43-26.44-167.45-65.75-253.87-71.32
						c-56.06-3.61-112.52,10.23-166.48,23.71c-55.65,13.9-111.51,29.57-169.1,32.43c-52.25,2.59-98.59-7.62-145.73-29.89
						c-54.67-25.82-103.14-48.38-164.9-49.1C224.76,321.54,113,301.34,0.18,300.87"/>
				</g>
				<g>
					
						<radialGradient id="SVGID_90_" cx="960.9399" cy="82.5376" r="681.2876" gradientTransform="matrix(-1 0 0 -1 1921.519 463.7967)" gradientUnits="userSpaceOnUse">
						<stop  offset="0" style="stop-color:#0093E9"/>
						<stop  offset="1" style="stop-color:#80D0C7"/>
					</radialGradient>
					<path class="st90" d="M1920.97,341.01c-45.11,1.13-90.18,2.95-135.27,4.85c-51.97,2.19-106.79-2.45-156.32,15.53
						c-60.53,21.97-111.85,63.32-172.37,85.31c-74.18,26.96-149.55-1.11-221.14-24.31c-80.97-26.23-166.46-65.22-252.37-70.68
						c-56.26-3.57-112.86,10.7-166.9,24.58c-55.79,14.33-111.82,30.52-169.65,33.53c-53.16,2.77-100.28-8.36-148.18-30.96
						c-55.79-26.33-105.64-49.99-168.65-50.84c-110.38-1.5-219.56-22.62-329.96-23.23"/>
				</g>
				<g>
					
						<radialGradient id="SVGID_91_" cx="960.9653" cy="78.6939" r="681.3053" gradientTransform="matrix(-1 0 0 -1 1921.519 463.7967)" gradientUnits="userSpaceOnUse">
						<stop  offset="0" style="stop-color:#0093E9"/>
						<stop  offset="1" style="stop-color:#80D0C7"/>
					</radialGradient>
					<path class="st91" d="M1920.93,350.94c-45.56,0.97-91.13,1.57-136.69,2.14c-52.19,0.65-107.32-3.85-157.12,13.96
						c-60.59,21.67-112.2,62.57-172.78,84.27c-74.03,26.51-148.9-1.03-220.33-24.11c-80.46-26.01-165.41-64.66-250.77-69.99
						c-56.47-3.52-113.22,11.21-167.34,25.51c-55.94,14.78-112.14,31.51-170.24,34.71c-54.12,2.98-102.12-9.15-150.83-32.12
						c-56.98-26.86-108.3-51.67-172.65-52.7c-107.78-1.71-214.2-23.77-322-24.56"/>
				</g>
				<g>
					
						<radialGradient id="SVGID_92_" cx="960.9911" cy="75.4307" r="681.3243" gradientTransform="matrix(-1 0 0 -1 1921.519 463.7967)" gradientUnits="userSpaceOnUse">
						<stop  offset="0" style="stop-color:#0093E9"/>
						<stop  offset="1" style="stop-color:#80D0C7"/>
					</radialGradient>
					<path class="st92" d="M1920.88,360.63c-46.1,0.77-92.11,0.09-138.2-0.72c-52.41-0.92-107.85-5.35-157.97,12.29
						c-60.67,21.36-112.55,61.79-173.21,83.17c-73.87,26.04-148.22-0.94-219.48-23.92c-79.92-25.77-164.31-64.09-249.09-69.26
						c-56.69-3.46-113.6,11.77-167.8,26.51c-56.09,15.25-112.48,32.54-170.85,35.94c-55.12,3.21-104.1-10-153.65-33.33
						c-58.23-27.42-111.11-53.43-176.85-54.66c-105.04-1.96-208.53-24.98-313.6-25.96"/>
				</g>
				<g>
					
						<radialGradient id="SVGID_93_" cx="961.0173" cy="72.7079" r="681.3447" gradientTransform="matrix(-1 0 0 -1 1921.519 463.7967)" gradientUnits="userSpaceOnUse">
						<stop  offset="0" style="stop-color:#0093E9"/>
						<stop  offset="1" style="stop-color:#80D0C7"/>
					</radialGradient>
					<path class="st93" d="M1920.83,370.06c-46.73,0.54-93.12-1.47-139.76-3.69c-52.63-2.5-108.38-6.94-158.87,10.54
						c-60.75,21.03-112.92,60.99-173.66,82.04c-73.69,25.54-147.52-0.86-218.59-23.71c-79.36-25.52-163.17-63.5-247.35-68.51
						c-56.92-3.39-114,12.37-168.28,27.55c-56.26,15.73-112.83,33.6-171.5,37.22c-56.14,3.47-106.2-10.89-156.59-34.6
						c-59.53-28.01-114.04-55.24-181.23-56.7c-102.2-2.22-202.61-26.24-304.84-27.43"/>
				</g>
				<g>
					
						<radialGradient id="SVGID_94_" cx="961.0433" cy="70.485" r="681.366" gradientTransform="matrix(-1 0 0 -1 1921.519 463.7967)" gradientUnits="userSpaceOnUse">
						<stop  offset="0" style="stop-color:#0093E9"/>
						<stop  offset="1" style="stop-color:#80D0C7"/>
					</radialGradient>
					<path class="st94" d="M1920.78,379.2c-47.43,0.28-94.15-3.1-141.37-6.75c-52.85-4.09-108.91-8.59-159.79,8.72
						c-60.83,20.69-113.29,60.16-174.11,80.88c-73.51,25.04-146.79-0.77-217.67-23.5c-78.79-25.27-161.99-62.9-245.55-67.74
						c-57.15-3.31-114.42,12.99-168.78,28.62c-56.43,16.22-113.19,34.68-172.16,38.54c-57.18,3.75-108.38-11.82-159.64-35.91
						c-60.87-28.62-117.06-57.08-185.73-58.8c-99.27-2.49-196.49-27.52-295.8-28.94"/>
				</g>
				<g>
					
						<radialGradient id="SVGID_95_" cx="961.0688" cy="68.7218" r="681.3882" gradientTransform="matrix(-1 0 0 -1 1921.519 463.7967)" gradientUnits="userSpaceOnUse">
						<stop  offset="0" style="stop-color:#0093E9"/>
						<stop  offset="1" style="stop-color:#80D0C7"/>
					</radialGradient>
					<path class="st95" d="M1920.74,388.03c-48.2,0.01-95.2-4.78-143.02-9.88c-53.08-5.65-109.41-10.3-160.74,6.85
						c-60.92,20.35-113.67,59.33-174.58,79.7c-73.31,24.52-146.06-0.69-216.73-23.29c-78.2-25.01-160.79-62.29-243.72-66.95
						c-57.39-3.22-114.85,13.64-169.29,29.72c-56.6,16.72-113.56,35.77-172.83,39.89c-58.23,4.04-110.64-12.77-162.76-37.25
						c-62.24-29.23-120.14-58.94-190.33-60.94c-96.29-2.76-190.24-28.84-286.57-30.49"/>
				</g>
				<g>
					
						<radialGradient id="SVGID_96_" cx="961.0908" cy="67.378" r="681.4132" gradientTransform="matrix(-1 0 0 -1 1921.519 463.7967)" gradientUnits="userSpaceOnUse">
						<stop  offset="0" style="stop-color:#0093E9"/>
						<stop  offset="1" style="stop-color:#80D0C7"/>
					</radialGradient>
					<path class="st96" d="M1920.69,396.53c-49.02-0.28-96.26-6.49-144.68-13.03c-53.3-7.2-109.89-12.03-161.71,4.96
						c-61.01,20-114.06,58.48-175.05,78.5c-73.1,24-145.32-0.61-215.77-23.08c-77.6-24.74-159.58-61.67-241.87-66.15
						c-57.63-3.14-115.28,14.29-169.8,30.84c-56.77,17.23-113.93,36.88-173.51,41.24c-59.27,4.34-112.93-13.74-165.92-38.61
						c-63.63-29.86-123.24-60.8-194.97-63.11c-93.28-3.01-183.9-30.18-277.24-32.05"/>
				</g>
				<g>
					
						<radialGradient id="SVGID_97_" cx="961.1115" cy="66.4133" r="681.4386" gradientTransform="matrix(-1 0 0 -1 1921.519 463.7967)" gradientUnits="userSpaceOnUse">
						<stop  offset="0" style="stop-color:#0093E9"/>
						<stop  offset="1" style="stop-color:#80D0C7"/>
					</radialGradient>
					<path class="st97" d="M1920.64,404.66c-101.06-1.18-209.81-45.04-309.02-13.13c-61.09,19.65-114.44,57.63-175.52,77.31
						c-72.88,23.48-144.58-0.54-214.81-22.87c-77-24.48-158.37-61.06-240.02-65.35c-57.87-3.04-115.72,14.96-170.31,31.95
						c-56.94,17.73-114.3,37.98-174.19,42.61c-60.3,4.65-115.25-14.72-169.09-39.97c-65.03-30.5-126.36-62.65-199.63-65.29
						c-90.29-3.25-177.53-31.52-267.88-33.62"/>
				</g>
				<g>
					
						<radialGradient id="SVGID_98_" cx="961.1309" cy="65.7875" r="681.4643" gradientTransform="matrix(-1 0 0 -1 1921.519 463.7967)" gradientUnits="userSpaceOnUse">
						<stop  offset="0" style="stop-color:#0093E9"/>
						<stop  offset="1" style="stop-color:#80D0C7"/>
					</radialGradient>
					<path class="st98" d="M1920.6,412.4c-102.74-1.8-210.15-50.18-311.63-18.16c-61.18,19.31-114.82,56.79-175.99,76.12
						c-72.66,22.96-143.86-0.46-213.86-22.65c-76.41-24.22-157.16-60.44-238.17-64.56c-58.11-2.95-116.15,15.62-170.82,33.06
						c-57.12,18.23-114.67,39.08-174.86,43.96c-61.31,4.97-117.56-15.69-172.23-41.31c-66.42-31.13-129.45-64.47-204.25-67.45
						c-87.33-3.47-171.18-32.87-258.59-35.18"/>
				</g>
				<g>
					
						<radialGradient id="SVGID_99_" cx="961.1486" cy="65.4603" r="681.4899" gradientTransform="matrix(-1 0 0 -1 1921.519 463.7967)" gradientUnits="userSpaceOnUse">
						<stop  offset="0" style="stop-color:#0093E9"/>
						<stop  offset="1" style="stop-color:#80D0C7"/>
					</radialGradient>
					<path class="st99" d="M1920.55,419.73c-104.41-2.4-210.45-55.22-314.2-23.1c-61.27,18.97-115.19,55.95-176.45,74.94
						c-72.45,22.46-143.14-0.39-212.93-22.44c-75.83-23.96-155.97-59.83-236.36-63.77c-58.35-2.87-116.58,16.26-171.32,34.15
						c-57.28,18.72-115.03,40.17-175.53,45.29c-62.29,5.28-119.84-16.66-175.32-42.64c-67.8-31.75-132.5-66.26-208.81-69.58
						c-84.44-3.67-164.92-34.21-249.45-36.71"/>
				</g>
				<g>
					
						<radialGradient id="SVGID_100_" cx="961.1644" cy="65.3914" r="681.515" gradientTransform="matrix(-1 0 0 -1 1921.519 463.7967)" gradientUnits="userSpaceOnUse">
						<stop  offset="0" style="stop-color:#0093E9"/>
						<stop  offset="1" style="stop-color:#80D0C7"/>
					</radialGradient>
					<path class="st100" d="M1920.51,426.62c-106.05-2.99-210.73-60.11-316.7-27.91c-61.36,18.64-115.56,55.13-176.9,73.8
						c-72.23,21.97-142.45-0.32-212.02-22.24c-75.26-23.71-154.81-59.22-234.58-63.01c-58.59-2.78-117,16.89-171.81,35.21
						c-57.44,19.19-115.38,41.23-176.18,46.59c-63.23,5.58-122.06-17.6-178.32-43.93c-69.14-32.36-135.47-68-213.25-71.65
						c-81.65-3.83-158.78-35.54-240.53-38.21"/>
				</g>
				<g>
					
						<radialGradient id="SVGID_101_" cx="961.1779" cy="65.5408" r="681.5394" gradientTransform="matrix(-1 0 0 -1 1921.519 463.7967)" gradientUnits="userSpaceOnUse">
						<stop  offset="0" style="stop-color:#0093E9"/>
						<stop  offset="1" style="stop-color:#80D0C7"/>
					</radialGradient>
					<path class="st101" d="M1920.48,433.04c-107.65-3.53-210.96-64.8-319.12-32.55c-61.44,18.32-116.91,54.33-178.34,72.68
						c-72.02,21.51-140.79-0.25-210.15-22.04c-74.72-23.47-153.68-58.63-232.87-62.27c-58.82-2.71-117.4,17.5-172.29,36.23
						c-57.6,19.66-116.72,42.26-177.81,47.85c-64.13,5.87-123.21-18.52-180.21-45.18c-70.45-32.95-138.34-69.67-217.55-73.65
						c-78.99-3.97-152.84-36.83-231.94-39.64"/>
				</g>
				<g>
					
						<radialGradient id="SVGID_102_" cx="961.189" cy="65.8683" r="681.5627" gradientTransform="matrix(-1 0 0 -1 1921.519 463.7967)" gradientUnits="userSpaceOnUse">
						<stop  offset="0" style="stop-color:#0093E9"/>
						<stop  offset="1" style="stop-color:#80D0C7"/>
					</radialGradient>
					<path class="st102" d="M1920.44,438.98c-109.2-4.02-211.14-69.26-321.41-36.95c-61.52,18.02-117.26,53.56-178.77,71.61
						c-71.82,21.07-140.16-0.18-209.32-21.84c-74.2-23.24-152.6-58.05-231.23-61.56c-59.05-2.64-117.79,18.07-172.74,37.2
						c-57.74,20.1-117.05,43.26-178.41,49.06c-64.98,6.14-125.25-19.39-182.95-46.36c-71.7-33.52-141.08-71.28-221.66-75.56
						c-76.48-4.07-147.14-38.09-223.74-41.02"/>
				</g>
				<g>
					
						<radialGradient id="SVGID_103_" cx="961.1972" cy="66.3114" r="681.5859" gradientTransform="matrix(-1 0 0 -1 1921.519 463.7967)" gradientUnits="userSpaceOnUse">
						<stop  offset="0" style="stop-color:#0093E9"/>
						<stop  offset="1" style="stop-color:#80D0C7"/>
					</radialGradient>
					<path class="st103" d="M1920.41,444.41c-112.31-4.49-213.12-74.08-327.07-40c-60.94,18.22-116.59,52.96-177.92,70.09
						c-71.4,19.94-139.36-1.29-207.95-22.75c-73.31-22.95-150.55-57.11-228.23-60.48c-58.77-2.55-117.49,18.51-172.01,37.86
						c-57.5,20.4-116.71,44.15-177.91,50.39c-67.58,6.88-130.29-20.44-190.17-48.57c-72.59-34.11-142.7-71.61-224.26-76.17
						c-73.67-4.12-140.82-39.28-214.66-42.25"/>
				</g>
				<g>
					
						<radialGradient id="SVGID_104_" cx="961.2024" cy="66.3764" r="681.6376" gradientTransform="matrix(-1 0 0 -1 1921.519 463.7967)" gradientUnits="userSpaceOnUse">
						<stop  offset="0" style="stop-color:#0093E9"/>
						<stop  offset="1" style="stop-color:#80D0C7"/>
					</radialGradient>
					<path class="st104" d="M1920.39,449.29c-113.75-4.82-213.13-77.96-329.07-43.83c-61.02,17.96-116.9,52.26-178.3,69.14
						c-71.22,19.57-138.8-1.21-207.22-22.56c-72.91-22.76-149.57-56.47-226.79-59.86c-58.94-2.59-117.87,19-172.41,38.68
						c-57.62,20.79-116.99,45.06-178.45,51.46c-68.32,7.11-132.08-21.22-192.57-49.63c-73.67-34.59-145.07-73.02-227.81-77.82
						C136.22,350.7,72,314.43,0.25,311.42"/>
				</g>
				<g>
					
						<radialGradient id="SVGID_105_" cx="961.2042" cy="65.6875" r="681.7399" gradientTransform="matrix(-1 0 0 -1 1921.519 463.7967)" gradientUnits="userSpaceOnUse">
						<stop  offset="0" style="stop-color:#0093E9"/>
						<stop  offset="1" style="stop-color:#80D0C7"/>
					</radialGradient>
					<path class="st105" d="M1920.37,453.62c-56.43-2.47-104.55-20.17-157.26-38.2c-56.64-19.37-115.48-25.96-173.61-9.09
						c-61.08,17.72-117.19,51.61-178.65,68.25c-71.06,19.25-138.29-1.13-206.56-22.38c-72.51-22.57-148.69-55.97-225.48-59.29
						c-59.13-2.56-118.17,19.41-172.77,39.42c-57.73,21.16-117.25,45.9-178.94,52.44c-69,7.31-133.69-21.93-194.73-50.58
						c-74.64-35.04-147.24-74.33-231.06-79.32c-69.68-4.15-131.16-41.51-201.05-44.52"/>
				</g>
				<g>
					
						<radialGradient id="SVGID_106_" cx="961.2025" cy="65.1613" r="681.8321" gradientTransform="matrix(-1 0 0 -1 1921.519 463.7967)" gradientUnits="userSpaceOnUse">
						<stop  offset="0" style="stop-color:#0093E9"/>
						<stop  offset="1" style="stop-color:#80D0C7"/>
					</radialGradient>
					<path class="st106" d="M1920.35,457.35c-57.11-2.51-105.27-21.24-158.3-40.18c-56.76-20.27-115.6-26.93-174.16-10.16
						c-61.14,17.51-117.46,51-178.96,67.45c-70.93,18.97-137.83-1.05-205.99-22.22c-72.16-22.41-147.9-55.5-224.3-58.78
						c-59.32-2.55-118.44,19.76-173.09,40.07c-57.82,21.49-117.48,46.69-179.38,53.32c-69.6,7.46-135.08-22.56-196.61-51.43
						c-75.51-35.43-149.19-75.54-233.96-80.66c-68.07-4.11-127.01-42.51-195.31-45.47"/>
				</g>
				<g>
					
						<radialGradient id="SVGID_107_" cx="961.1967" cy="64.7742" r="681.9121" gradientTransform="matrix(-1 0 0 -1 1921.519 463.7967)" gradientUnits="userSpaceOnUse">
						<stop  offset="0" style="stop-color:#0093E9"/>
						<stop  offset="1" style="stop-color:#80D0C7"/>
					</radialGradient>
					<path class="st107" d="M1920.35,460.47c-57.73-2.48-105.89-22.14-159.2-41.89c-56.86-21.07-115.68-27.71-174.6-11.03
						c-61.2,17.33-117.7,50.45-179.25,66.73c-70.82,18.73-137.45-0.97-205.51-22.07c-71.86-22.27-147.21-55.06-223.27-58.34
						c-59.48-2.57-118.67,20.03-173.37,40.61c-57.9,21.78-117.68,47.4-179.77,54.09c-70.12,7.56-136.22-23.09-198.19-52.15
						c-76.24-35.76-150.89-76.64-236.48-81.8c-66.74-4.03-123.39-43.4-190.4-46.29"/>
				</g>
				<g>
					
						<radialGradient id="SVGID_108_" cx="961.1868" cy="64.5026" r="681.9778" gradientTransform="matrix(-1 0 0 -1 1921.519 463.7967)" gradientUnits="userSpaceOnUse">
						<stop  offset="0" style="stop-color:#0093E9"/>
						<stop  offset="1" style="stop-color:#80D0C7"/>
					</radialGradient>
					<path class="st108" d="M1920.35,462.95c-58.28-2.37-106.41-22.86-159.95-43.32c-56.93-21.75-115.72-28.29-174.94-11.68
						c-61.24,17.18-117.91,49.96-179.49,66.1c-70.74,18.54-137.13-0.9-205.13-21.93c-71.62-22.15-146.62-54.66-222.41-57.97
						c-59.64-2.61-118.85,20.21-173.61,41.04c-57.96,22.04-117.85,48.04-180.09,54.75c-70.55,7.61-137.09-23.52-199.42-52.74
						c-76.84-36.02-152.31-77.62-238.59-82.75c-65.72-3.9-120.38-44.19-186.4-46.96"/>
				</g>
				<g>
					
						<radialGradient id="SVGID_109_" cx="961.1724" cy="64.3229" r="682.027" gradientTransform="matrix(-1 0 0 -1 1921.519 463.7967)" gradientUnits="userSpaceOnUse">
						<stop  offset="0" style="stop-color:#0093E9"/>
						<stop  offset="1" style="stop-color:#80D0C7"/>
					</radialGradient>
					<path class="st109" d="M1920.35,464.76c-58.74-2.16-106.81-23.38-160.53-44.42c-56.98-22.32-115.72-28.65-175.16-12.09
						c-61.27,17.07-118.09,49.54-179.69,65.59c-70.7,18.41-136.89-0.83-204.87-21.82c-71.45-22.06-146.15-54.3-221.73-57.68
						c-59.77-2.67-118.98,20.3-173.79,41.34c-57.99,22.26-117.97,48.59-180.35,55.27c-70.88,7.59-137.66-23.83-200.27-53.18
						c-77.27-36.22-153.44-78.48-240.23-83.47c-65.02-3.73-118.04-44.85-183.39-47.45"/>
				</g>
				<g>
					
						<radialGradient id="SVGID_110_" cx="961.1533" cy="64.2116" r="682.0578" gradientTransform="matrix(-1 0 0 -1 1921.519 463.7967)" gradientUnits="userSpaceOnUse">
						<stop  offset="0" style="stop-color:#0093E9"/>
						<stop  offset="1" style="stop-color:#80D0C7"/>
					</radialGradient>
					<path class="st110" d="M1920.37,465.89c-59.12-1.85-107.09-23.68-160.93-45.18c-57-22.76-115.66-28.77-175.24-12.25
						c-61.29,17-118.24,49.2-179.85,65.18c-70.69,18.34-136.73-0.75-204.72-21.72c-71.35-22-145.81-53.98-221.25-57.47
						c-59.89-2.77-119.06,20.29-173.91,41.5c-58,22.42-118.06,49.05-180.54,55.65c-71.12,7.51-137.91-24.02-200.72-53.46
						c-77.53-36.33-154.24-79.21-241.38-83.94c-64.67-3.51-116.43-45.38-181.45-47.77"/>
				</g>
				<g>
					
						<radialGradient id="SVGID_111_" cx="961.1292" cy="64.1449" r="682.0685" gradientTransform="matrix(-1 0 0 -1 1921.519 463.7967)" gradientUnits="userSpaceOnUse">
						<stop  offset="0" style="stop-color:#0093E9"/>
						<stop  offset="1" style="stop-color:#80D0C7"/>
					</radialGradient>
					<path class="st111" d="M1920.39,466.3c-59.4-1.42-107.22-23.73-161.13-45.56c-56.99-23.07-115.56-28.62-175.18-12.12
						c-61.29,16.97-118.35,48.93-179.96,64.9c-70.73,18.34-136.66-0.68-204.71-21.64c-71.28-21.95-145.63-53.81-220.98-57.35
						c-60.02-2.82-119.04,20.16-173.98,41.51c-57.99,22.54-118.1,49.41-180.65,55.87c-71.24,7.35-137.8-24.08-200.74-53.57
						c-77.61-36.37-154.7-79.78-241.98-84.16C116.4,350.95,65.44,308.43,0.39,306.3"/>
				</g>
			</g>
		</g>
	</g>
</g>
<g id="Warstwa_3">
</g>
</svg>
